<svg width="14" height="14" viewBox="0 0 14 14" fill="none" xmlns="http://www.w3.org/2000/svg">
<path d="M5.79668 8.2028C4.46041 6.86652 4.15868 5.53025 4.09061 4.99487C4.07159 4.84683 4.12254 4.69838 4.22844 4.59321L5.30982 3.51232C5.46889 3.35334 5.49712 3.10559 5.37789 2.9149L3.65613 0.241384C3.52422 0.0302372 3.25338 -0.0459678 3.03072 0.0654186L0.266684 1.36718C0.0866289 1.45584 -0.0192769 1.64714 0.00116636 1.8468C0.145994 3.22266 0.745821 6.60487 4.06961 9.9289C7.39341 13.2529 10.7751 13.8525 12.1517 13.9973C12.3514 14.0178 12.5427 13.9119 12.6313 13.7318L13.9331 10.9678C14.0441 10.7456 13.9684 10.4755 13.7581 10.3434L11.0846 8.62207C10.894 8.50272 10.6463 8.53074 10.4872 8.68966L9.40627 9.77104C9.3011 9.87695 9.15265 9.92789 9.00461 9.90887C8.46924 9.8408 7.13296 9.53907 5.79668 8.2028Z" fill="white"/>
<path d="M11.1027 7.4828C10.8361 7.4828 10.6199 7.26666 10.6199 7.00004C10.6177 5.00132 8.99795 3.3816 6.99924 3.37934C6.73262 3.37934 6.51648 3.1632 6.51648 2.89658C6.51648 2.62996 6.73262 2.41382 6.99924 2.41382C9.53097 2.41661 11.5827 4.4683 11.5854 7.00004C11.5854 7.26666 11.3693 7.4828 11.1027 7.4828Z" fill="white"/>
<path d="M13.5165 7.48276C13.2499 7.48276 13.0337 7.26662 13.0337 7C13.03 3.66879 10.3305 0.969242 6.99924 0.965517C6.73262 0.965517 6.51648 0.749379 6.51648 0.482759C6.51648 0.216138 6.73262 0 6.99924 0C10.8635 0.00425693 13.995 3.13577 13.9993 7C13.9993 7.12804 13.9484 7.25083 13.8579 7.34136C13.7673 7.4319 13.6445 7.48276 13.5165 7.48276Z" fill="white"/>
</svg>
