<svg width="52" height="50" viewBox="0 0 52 50" fill="none" xmlns="http://www.w3.org/2000/svg">
<path d="M47.3211 47.6563C47.4136 47.411 47.4731 47.15 47.4731 46.875C47.4731 46.6 47.4136 46.3391 47.3211 46.0938H49.1249V44.5313H47.4731V40.625C47.4731 40.193 47.1039 39.8438 46.6472 39.8438H44.1695V35.9375C44.1695 35.5055 43.8004 35.1563 43.3436 35.1563H42.5178V25C42.5178 24.568 42.1486 24.2188 41.6919 24.2188H10.3079C9.85121 24.2188 9.48204 24.568 9.48204 25V47.6563H6.17847V18.9789L25.9999 7.17346L45.8213 18.9797V38.2813H47.4731V19.9633L47.8588 20.193C47.9951 20.2735 48.147 20.3125 48.2982 20.3125C48.5509 20.3125 48.7978 20.2031 48.9597 20L51.4374 16.875C51.5761 16.7008 51.6307 16.4797 51.5894 16.2656C51.5481 16.0516 51.4134 15.8633 51.2194 15.7469L26.4426 0.903149C26.1733 0.741431 25.8281 0.741431 25.5589 0.903149L0.782083 15.7469C0.587998 15.8633 0.453378 16.0516 0.412083 16.2656C0.369136 16.4797 0.423645 16.7008 0.562395 16.875L3.04007 20C3.29775 20.3258 3.77677 20.4094 4.14099 20.193L4.52668 19.9633V47.6563H0.397217V49.2188H51.6026V47.6563H47.3211ZM3.90478 18.4867L2.41983 16.6141L25.9999 2.48752L49.58 16.6141L48.095 18.4867L26.4401 5.58831C26.3055 5.50862 26.1527 5.46877 25.9999 5.46877C25.8471 5.46877 25.6943 5.50862 25.5597 5.58831L3.90478 18.4867ZM45.8213 46.875C45.8213 47.3063 45.4513 47.6563 44.9954 47.6563C44.5395 47.6563 44.1695 47.3063 44.1695 46.875C44.1695 46.4438 44.5395 46.0938 44.9954 46.0938C45.4513 46.0938 45.8213 46.4438 45.8213 46.875ZM35.9106 46.875C35.9106 46.4438 36.2806 46.0938 36.7365 46.0938C37.1924 46.0938 37.5624 46.4438 37.5624 46.875C37.5624 47.3063 37.1924 47.6563 36.7365 47.6563C36.2806 47.6563 35.9106 47.3063 35.9106 46.875ZM34.2588 41.4063H35.9106V42.9688H37.5624V41.4063H39.2142V44.5313H34.2588V41.4063ZM39.0622 46.0938H42.6705C42.5772 46.3391 42.5178 46.6 42.5178 46.875C42.5178 47.15 42.5772 47.411 42.6697 47.6563H39.0614C39.1547 47.411 39.2142 47.15 39.2142 46.875C39.2142 46.6 39.1547 46.3391 39.0622 46.0938ZM45.8213 44.5313H40.866V41.4063H42.5178V42.9688H44.1695V41.4063H45.8213V44.5313ZM37.5624 39.8438V36.7188H39.2142V38.2813H40.866V36.7188H42.5178V39.8438H37.5624ZM36.7365 35.1563C36.2798 35.1563 35.9106 35.5055 35.9106 35.9375V39.8438H34.2588V34.375C34.2588 33.943 33.8896 33.5938 33.4329 33.5938H30.1294V35.1563H32.607V45.3125C32.607 45.7446 32.9762 46.0938 33.4329 46.0938H34.4108C34.3183 46.3391 34.2588 46.6 34.2588 46.875C34.2588 47.15 34.3183 47.411 34.4108 47.6563H30.9553V43.75C30.9553 43.318 30.5861 42.9688 30.1294 42.9688H24.3481V39.0625C24.3481 38.6305 23.9789 38.2813 23.5222 38.2813H17.741V34.375C17.741 33.943 17.3718 33.5938 16.9151 33.5938H11.1338V32.0313H40.866V35.1563H36.7365ZM11.1338 42.9688V39.8438H12.7856V41.4063H14.4374V39.8438H16.0892V42.9688H11.1338ZM14.4374 36.7188V35.1563H16.0892V38.2813H11.1338V35.1563H12.7856V36.7188H14.4374ZM21.0445 41.4063V39.8438H22.6963V42.9688H17.741V39.8438H19.3928V41.4063H21.0445ZM17.741 44.5313H19.3928V46.0938H21.0445V44.5313H22.6963V47.6563H17.741V44.5313ZM24.3481 44.5313H25.9999V46.0938H27.6517V44.5313H29.3035V47.6563H24.3481V44.5313ZM40.866 30.4688H11.1338V28.9063H40.866V30.4688ZM40.866 25.7813V27.3438H11.1338V25.7813H40.866ZM11.1338 44.5313H12.7856V46.0938H14.4374V44.5313H16.0892V47.6563H11.1338V44.5313Z" fill="#4945FF"/>
</svg>
