<svg width="20" height="20" viewBox="0 0 20 20" fill="none" xmlns="http://www.w3.org/2000/svg">
   <g clip-path="url(#clip0)">
      <path
         d="M7.58591 0.392303C7.58591 0.175629 7.41028 0 7.1936 0H4.53293C4.31625 0 4.14063 0.175629 4.14063 0.392303L4.14062 19.6077C4.14062 19.8244 4.31625 20 4.53293 20H7.1936C7.41028 20 7.58591 19.8244 7.58591 19.6077C7.58591 18.2686 8.67538 17.1791 10.0145 17.1791C11.3536 17.1791 12.4431 18.2686 12.4431 19.6077C12.4431 19.8244 12.6187 20 12.8354 20H15.4961C15.7127 20 15.8884 19.8244 15.8884 19.6077V16.1197C15.8884 15.903 15.7127 15.7274 15.4961 15.7274C15.2794 15.7274 15.1038 15.903 15.1038 16.1197V19.2154H13.2039C13.0098 17.628 11.6534 16.3945 10.0145 16.3945C8.37555 16.3945 7.0192 17.628 6.8251 19.2154H4.92523L4.92523 5.74142H5.70969C5.92636 5.74142 6.10199 5.5658 6.10199 5.34912C6.10199 5.13245 5.92636 4.95682 5.70969 4.95682H4.92523V0.784607H6.8251C7.0192 2.37198 8.37555 3.6055 10.0145 3.6055C11.6534 3.6055 13.0098 2.37198 13.2039 0.784607H15.1038V4.95682H14.3192C14.1025 4.95682 13.927 5.13245 13.927 5.34912C13.927 5.5658 14.1025 5.74142 14.3192 5.74142H15.1038V12.8984C15.1038 13.1151 15.2794 13.2907 15.4961 13.2907C15.7127 13.2907 15.8884 13.1151 15.8884 12.8984L15.8884 0.392303C15.8884 0.175629 15.7127 0 15.4961 0H12.8354C12.6187 0 12.4431 0.175629 12.4431 0.392303C12.4431 1.73141 11.3536 2.82089 10.0145 2.82089C8.67538 2.82089 7.58591 1.73141 7.58591 0.392303Z"
         fill="#676767" />
      <path
         d="M11.842 5.34915C11.842 5.13248 11.6664 4.95685 11.4497 4.95685H8.5798C8.36313 4.95685 8.1875 5.13248 8.1875 5.34915C8.1875 5.56583 8.36313 5.74146 8.5798 5.74146H11.4497C11.6664 5.74146 11.842 5.56583 11.842 5.34915Z"
         fill="#676767" />
      <path
         d="M9.45829 11.6461C9.16746 11.3553 8.78065 11.195 8.36942 11.195C7.95805 11.195 7.57124 11.3553 7.2804 11.6461C6.67997 12.2465 6.67997 13.2235 7.2804 13.824C7.57124 14.1148 7.95805 14.275 8.36942 14.275C8.78065 14.275 9.16746 14.1148 9.45829 13.824C9.75858 13.5237 9.90858 13.1294 9.90858 12.735C9.90858 12.3407 9.75858 11.9462 9.45829 11.6461ZM8.36942 13.4904C8.16755 13.4904 7.97788 13.4118 7.83521 13.2692C7.68797 13.1219 7.61427 12.9284 7.61427 12.735C7.61427 12.5415 7.68797 12.3481 7.83521 12.2009C7.97788 12.0581 8.16755 11.9795 8.36942 11.9795C8.57114 11.9795 8.76081 12.0581 8.90348 12.2009C9.19813 12.4954 9.19813 12.9747 8.90348 13.2692C8.76081 13.4118 8.57114 13.4904 8.36942 13.4904Z"
         fill="#676767" />
      <path
         d="M10.7589 10.3035C11.3593 10.9041 12.3363 10.9041 12.9367 10.3035C13.237 10.0033 13.3872 9.60889 13.3872 9.2146C13.3872 8.82016 13.237 8.42587 12.9367 8.12558C12.3363 7.52515 11.3593 7.52515 10.7589 8.12558C10.1584 8.72617 10.1586 9.70319 10.7589 10.3035ZM11.3137 8.68039C11.6082 8.38589 12.0874 8.38589 12.3819 8.68039C12.6764 8.97488 12.6766 9.45416 12.3819 9.74866C12.0874 10.0433 11.6082 10.0433 11.3137 9.74866C11.1664 9.60141 11.0927 9.40808 11.0927 9.2146C11.0927 9.02112 11.1664 8.82764 11.3137 8.68039Z"
         fill="#676767" />
      <path
         d="M12.4452 12.7455L8.35916 8.65949C8.20596 8.50645 7.95755 8.50645 7.80435 8.65949C7.65115 8.81284 7.65115 9.0611 7.80435 9.2143L11.8904 13.3003C12.0321 13.4421 12.266 13.4527 12.4197 13.3236C12.5935 13.1776 12.6057 12.9062 12.4452 12.7455Z"
         fill="#676767" />
      <path
         d="M15.0996 14.5161C15.0996 14.6797 15.2052 14.8294 15.359 14.8849C15.5125 14.9404 15.6901 14.8922 15.7942 14.766C15.8984 14.6395 15.9124 14.4576 15.8294 14.3167C15.7466 14.1758 15.5786 14.0998 15.4182 14.131C15.2359 14.1662 15.0996 14.3301 15.0996 14.5161Z"
         fill="#676767" />
   </g>
   <defs>
      <clipPath id="clip0">
         <rect width="20" height="20" fill="white" transform="translate(0 20) rotate(-90)" />
      </clipPath>
   </defs>
</svg>