<svg width="24" height="23" viewBox="0 0 24 23" fill="none" xmlns="http://www.w3.org/2000/svg">
   <g clip-path="url(#clip0)">
      <path
         d="M23.8326 8.15565L21.1513 1.56105C20.6432 0.314409 19.1629 -0.306551 17.845 0.174077C17.8259 0.18107 17.8068 0.188252 17.7878 0.19567L4.38841 5.44988C3.11254 5.94496 2.48547 7.3111 2.97423 8.53096L3.34266 9.46122H2.4975C1.11883 9.46268 0.00154845 10.5196 0 11.8237V20.3287C0.00154845 21.6329 1.11883 22.6898 2.4975 22.6912H19.4805C20.8592 22.6898 21.9765 21.6329 21.978 20.3287V11.8237C21.9772 11.6955 21.9652 11.5675 21.9421 11.4412L22.406 11.2635C23.6933 10.7644 24.3259 9.38614 23.8326 8.15565ZM2.4975 10.2173H19.4805C20.3774 10.2197 21.1173 10.8823 21.1688 11.7293H0.809191C0.86074 10.8822 1.6006 10.2196 2.4975 10.2173ZM6.51389 7.94019L9.18482 6.67653L9.73387 7.97572L7.06294 9.239L6.51389 7.94019ZM21.1788 20.3288C21.1777 21.2156 20.418 21.9342 19.4805 21.9353H2.4975C1.55999 21.9342 0.8003 21.2156 0.799201 20.3288V15.5093H21.1788V20.3288ZM21.1788 14.7533H0.799201V12.4853H21.1788V14.7533ZM22.1063 10.565L21.6887 10.7249C21.2574 9.94888 20.4074 9.46249 19.4805 9.46126H8.38042L10.4204 8.49623C10.6064 8.40839 10.6902 8.2003 10.613 8.01768L9.76544 6.01428C9.68347 5.82046 9.45095 5.72615 9.24606 5.80364C9.23572 5.80756 9.22558 5.81186 9.21564 5.81658L5.82743 7.42006C5.64156 7.50804 5.55799 7.71608 5.63522 7.89861L6.29616 9.46126H4.19581L3.72268 8.26754C3.38726 7.42942 3.81808 6.49103 4.69451 6.15073L18.0935 0.89653C18.9893 0.545179 20.0165 0.947229 20.388 1.79456C20.3938 1.80775 20.3994 1.82102 20.4048 1.83435L23.0861 8.42894C23.4253 9.27448 22.9908 10.2218 22.1063 10.565Z"
         fill="#676767" />
      <path
         d="M14.3743 20.8723C15.1189 21.2816 16.0384 21.2816 16.7831 20.8723C17.9281 21.5016 19.3955 21.1336 20.0607 20.0506C20.7259 18.9675 20.3369 17.5794 19.1919 16.9502C18.8245 16.7482 18.4069 16.6423 17.9819 16.6432C17.5606 16.6434 17.1469 16.7493 16.7831 16.9502C15.6381 16.3209 14.1707 16.6888 13.5055 17.7719C12.8403 18.855 13.2293 20.2431 14.3743 20.8723ZM17.4512 17.4915C17.6212 17.4323 17.8007 17.4011 17.9819 17.3993C18.8647 17.3993 19.5803 18.0762 19.5803 18.9113C19.5803 19.7463 18.8647 20.4233 17.9819 20.4233C17.8007 20.4215 17.6212 20.3903 17.4512 20.331C18.1587 19.5028 18.1587 18.3197 17.4512 17.4915ZM16.7831 17.9217C17.3159 18.4852 17.3159 19.3374 16.7831 19.9009C16.2503 19.3374 16.2503 18.4851 16.7831 17.9217ZM15.5843 17.3993C15.7655 17.401 15.945 17.4323 16.115 17.4915C15.4075 18.3197 15.4075 19.5028 16.115 20.331C15.945 20.3903 15.7655 20.4215 15.5843 20.4233C14.7015 20.4233 13.9859 19.7463 13.9859 18.9113C13.9859 18.0762 14.7015 17.3993 15.5843 17.3993Z"
         fill="#676767" />
      <path d="M16.8551 7.81252L17.1797 8.50336L20.9919 6.90036L20.6673 6.20953L16.8551 7.81252Z" fill="#676767" />
      <path d="M19.8179 4.60916L14.3115 7.01334L14.6463 7.69944L20.1527 5.29526L19.8179 4.60916Z" fill="#676767" />
   </g>
   <defs>
      <clipPath id="clip0">
         <rect width="24" height="22.7027" fill="white" />
      </clipPath>
   </defs>
</svg>