<svg width="26" height="26" viewBox="0 0 26 26" fill="none" xmlns="http://www.w3.org/2000/svg">
   <g clip-path="url(#clip0)">
      <path
         d="M25.1174 12.0103L23.347 11.2441L21.8435 8.31848C21.4372 7.51742 20.6129 7.01821 19.7132 7.02401H17.1242V6.29261C17.1242 4.96912 16.0678 3.88943 14.7443 3.88943H2.3685C1.04501 3.88943 0.000154453 4.97493 0.000154453 6.29261V17.4958C-0.0114551 18.3027 0.632875 18.9644 1.43974 18.9761C1.44554 18.9761 1.45135 18.9761 1.46296 18.9761H1.77061C1.77061 19.0341 1.76481 19.0573 1.76481 19.0921C1.759 20.7523 3.09991 22.1048 4.76007 22.1106C6.42024 22.1164 7.77275 20.7755 7.77855 19.1154C7.77855 19.1038 7.77855 19.098 7.77855 19.0863C7.77855 19.0457 7.77855 19.0283 7.77275 18.9702H17.7744C17.7744 19.0283 17.7744 19.0515 17.7744 19.0863C17.7686 20.7465 19.1095 22.099 20.7696 22.1048C22.4298 22.1106 23.7823 20.7697 23.7881 19.1096C23.7881 19.098 23.7881 19.0921 23.7881 19.0805C23.7881 19.0399 23.7881 19.0225 23.7881 18.9644H24.5369C25.3438 18.9644 25.9997 18.3085 25.9997 17.5016C25.9997 17.4958 25.9997 17.49 25.9997 17.4784V13.357C26.0114 12.7882 25.6631 12.2483 25.1174 12.0103ZM4.77749 20.9555C3.75584 20.9555 2.93157 20.1312 2.93157 19.1096C2.93157 18.0879 3.75584 17.2636 4.77749 17.2636C5.79913 17.2636 6.6234 18.0879 6.6234 19.1096C6.6234 20.1254 5.79332 20.9555 4.77749 20.9555ZM15.9633 17.8267H7.49993C7.01232 16.7644 5.94425 16.0853 4.77749 16.0911C3.60492 16.0853 2.54265 16.7586 2.05505 17.8267H1.46296C1.28301 17.8267 1.16111 17.6874 1.16111 17.5074V14.518H15.9633V17.8267ZM15.9633 6.29842V13.357H1.16111V6.29842C1.16111 5.61926 1.68934 5.0562 2.3685 5.0562H14.7443C15.4234 5.062 15.9691 5.61926 15.9633 6.29261V6.29842ZM17.1242 8.19078H19.7132C20.1718 8.18497 20.6013 8.43458 20.8161 8.84672L21.977 11.0932H17.1242V8.19078ZM20.7871 20.9555C19.7654 20.9555 18.9411 20.1312 18.9411 19.1096C18.9411 18.0879 19.7654 17.2636 20.7871 17.2636C21.8087 17.2636 22.633 18.0879 22.633 19.1096C22.633 20.1254 21.8087 20.9555 20.7871 20.9555ZM24.8446 17.5074C24.8446 17.6874 24.7227 17.8267 24.5427 17.8267H23.5095C22.8071 16.3233 21.0192 15.6731 19.5158 16.3755C18.8773 16.6716 18.3607 17.1882 18.0646 17.8267H17.1242V12.2541H22.8129L24.6588 13.0668C24.7749 13.1248 24.8504 13.2525 24.8446 13.3802V17.5074Z"
         fill="#676767" />
   </g>
   <defs>
      <clipPath id="clip0">
         <rect width="26" height="26" fill="white" />
      </clipPath>
   </defs>
</svg>