<svg width="15" height="12" viewBox="0 0 15 12" fill="none" xmlns="http://www.w3.org/2000/svg">
<path d="M12.5714 7.14286C12.5714 7.125 12.5714 7.10714 12.5625 7.08929L7.42857 2.85714L2.29464 7.08929C2.29464 7.10714 2.28571 7.125 2.28571 7.14286V11.4286C2.28571 11.7411 2.54464 12 2.85714 12H6.28571V8.57143H8.57143V12H12C12.3125 12 12.5714 11.7411 12.5714 11.4286V7.14286ZM14.5625 6.52679C14.6607 6.41071 14.6429 6.22321 14.5268 6.125L12.5714 4.5V0.857142C12.5714 0.696428 12.4464 0.571428 12.2857 0.571428H10.5714C10.4107 0.571428 10.2857 0.696428 10.2857 0.857142V2.59821L8.10714 0.776785C7.73214 0.464285 7.125 0.464285 6.75 0.776785L0.330357 6.125C0.214286 6.22321 0.196429 6.41071 0.294643 6.52679L0.848214 7.1875C0.892857 7.24107 0.964286 7.27679 1.03571 7.28571C1.11607 7.29464 1.1875 7.26786 1.25 7.22321L7.42857 2.07143L13.6071 7.22321C13.6607 7.26786 13.7232 7.28571 13.7946 7.28571C13.8036 7.28571 13.8125 7.28571 13.8214 7.28571C13.8929 7.27679 13.9643 7.24107 14.0089 7.1875L14.5625 6.52679Z" fill="#2B2A2A"/>
</svg>
