<svg width="40" height="30" viewBox="0 0 40 30" fill="none" xmlns="http://www.w3.org/2000/svg">
   <path
      d="M4.76837 17.7408C4.42402 17.9024 4.27209 18.3091 4.42555 18.6567L5.99845 22.0333C6.07572 22.2014 6.2167 22.3323 6.39008 22.3969C6.46604 22.4245 6.5466 22.4387 6.6276 22.4387C6.72896 22.4396 6.829 22.4179 6.92117 22.3761L18.8051 16.8253L17.7287 28.0799C17.7079 28.3014 17.7933 28.5192 17.959 28.6672C18.48 29.0985 19.1293 29.3441 19.8049 29.3662C19.9912 29.366 20.1764 29.3426 20.357 29.2966C21.3217 29.0449 22.0698 28.1852 22.5801 26.7169L27.2567 12.8689L36.5189 8.5484C39.2453 7.27629 40.6503 4.69683 39.7068 2.68348C39.1713 1.63116 38.1457 0.915311 36.9734 0.774988C35.6709 0.578403 34.3397 0.783306 33.1566 1.36255L22.468 6.37458L10.9759 1.87963C9.52865 1.33453 8.38241 1.34854 7.57856 1.92888C6.90409 2.4823 6.52034 3.31417 6.53675 4.18654C6.54376 4.40786 6.65519 4.61255 6.83732 4.73908L14.5757 10.0587L10.144 12.1559L2.71277 10.2682C2.40826 10.1933 2.09128 10.3306 1.93694 10.6038L0.0847134 13.9381C-0.0113897 14.1147 -0.0264948 14.3244 0.0433387 14.5131C0.112734 14.7021 0.260282 14.8516 0.448329 14.9238L5.94985 17.1959L4.76837 17.7408ZM7.96954 3.83715C8.0107 3.54162 8.16022 3.27258 8.3892 3.08212C8.78784 2.79534 9.51485 2.83737 10.4864 3.20077L20.7206 7.19245L16.0507 9.37348L7.96954 3.83715ZM1.6784 13.9313L2.89469 11.7712L10.0459 13.5466C10.2001 13.5856 10.3627 13.5709 10.5076 13.505L33.751 2.64867C34.675 2.19289 35.7157 2.02696 36.7359 2.17319C37.4513 2.23908 38.0886 2.65195 38.4417 3.27761C39.0283 4.53615 37.8751 6.37458 35.9246 7.2833L27.8716 11.0585L28.3611 9.611C28.4848 9.23863 28.2828 8.83627 27.9104 8.7128C27.5376 8.58933 27.1354 8.79139 27.012 9.16376L21.2587 26.2833C20.9161 27.2552 20.4896 27.8356 20.0144 27.961C19.7199 28.0177 19.4152 27.9599 19.1615 27.8006L20.5597 13.1202C20.5963 12.7342 20.3132 12.3916 19.9268 12.3551C19.5409 12.3181 19.1983 12.6016 19.1615 12.9875L18.945 15.2314L6.94897 20.8238L5.96386 18.7266L7.93474 17.8041C8.18846 17.6922 8.35199 17.4413 8.35199 17.1644C8.35199 16.8873 8.18846 16.6364 7.93474 16.5247L1.6784 13.9313Z"
      fill="#4945FF" />
</svg>