<svg width="48" height="48" viewBox="0 0 48 48" fill="none" xmlns="http://www.w3.org/2000/svg">
   <path
      d="M45.3672 14.625H47.4375V16.1875H45.0938C44.9165 16.1875 44.7445 16.1272 44.6061 16.0166L44.1637 15.6631C41.9211 13.8689 39.4529 12.3765 36.8223 11.2241L29.9522 8.49951C29.9439 8.49629 29.9357 8.49287 29.9275 8.48975C29.6196 8.35512 29.2728 8.33936 28.9539 8.4455C28.6351 8.55165 28.3669 8.77217 28.2011 9.06447C28.0353 9.35678 27.9838 9.70015 28.0563 10.0283C28.1289 10.3564 28.3205 10.646 28.594 10.8411L34.5833 14.7524C34.67 14.8091 34.7446 14.8824 34.8026 14.9681C34.8607 15.0539 34.9012 15.1503 34.9216 15.2519C35.2346 16.5294 35.7959 17.7329 36.5736 18.7937C38.2115 20.9888 40.5265 21.9529 43.453 21.6605L43.6085 23.2152C43.2104 23.2551 42.8271 23.2746 42.4588 23.2738C38.7544 23.2738 36.5287 21.3669 35.2847 19.6784C34.5166 18.6198 33.9317 17.4398 33.5542 16.1875H20.3867V14.625H31.5311L27.7281 12.1414C27.7211 12.1368 27.714 12.1321 27.7071 12.1272C27.3863 11.9025 27.114 11.6156 26.9063 11.2836C26.6986 10.9515 26.5598 10.5811 26.4981 10.1943C26.4364 9.80755 26.4532 9.41233 26.5473 9.03214C26.6414 8.65196 26.811 8.29458 27.046 7.98125C27.4393 7.4564 27.9979 7.07926 28.6317 6.91064C29.2655 6.74202 29.9376 6.79173 30.5397 7.05176L37.411 9.77637C37.4195 9.77969 37.4279 9.7832 37.4362 9.78682C40.1968 10.9946 42.7867 12.5599 45.1395 14.4424L45.3672 14.625ZM16.334 9.9375L19.6224 25.7219L21.1521 25.4031L17.7489 9.07041C17.7238 6.8071 16.8077 4.64487 15.1993 3.05232C13.5909 1.45978 11.4197 0.565212 9.15625 0.5625H0.5625V2.125H9.15625C10.8852 2.1272 12.5529 2.7654 13.8416 3.91799C15.1304 5.07058 15.95 6.65701 16.1444 8.375H11.4011C11.227 7.70461 10.8355 7.11088 10.288 6.68677C9.74038 6.26266 9.06761 6.03212 8.375 6.03125H0.5625V7.59375H8.375C8.77833 7.59439 9.16579 7.7509 9.45641 8.03057C9.74702 8.31025 9.91827 8.69143 9.93437 9.09443L6.04639 28.5343L7.57861 28.8407L11.3593 9.9375H16.334ZM38.8895 26.9424C36.5367 25.0603 33.9469 23.4953 31.1865 22.2874C31.1808 22.285 31.1751 22.2824 31.1692 22.2802L27.7367 20.875H29.4688V19.3125H21.8841V20.875H22.5437C22.4942 20.9314 22.446 20.9894 22.4002 21.0503C22.1661 21.3625 21.9969 21.7185 21.9026 22.0971C21.8083 22.4758 21.7909 22.8695 21.8513 23.2551C21.9117 23.6406 22.0487 24.0101 22.2543 24.3418C22.4598 24.6735 22.7298 24.9607 23.0481 25.1863L25.5918 27.125H11.5C10.9049 27.1247 10.3221 27.2944 9.82019 27.6142C9.31828 27.9339 8.91817 28.3904 8.66696 28.9299C8.41574 29.4694 8.32387 30.0694 8.40216 30.6594C8.48046 31.2493 8.72565 31.8046 9.10889 32.2599C8.52332 32.6118 8.06923 33.1459 7.81613 33.7804C7.56303 34.415 7.52488 35.115 7.70752 35.7733C7.89015 36.4316 8.28351 37.0119 8.82736 37.4253C9.37121 37.8388 10.0356 38.0626 10.7188 38.0625H23.2188V36.5H10.7188C10.3043 36.5 9.90692 36.3354 9.6139 36.0424C9.32087 35.7493 9.15625 35.3519 9.15625 34.9375C9.15625 34.5231 9.32087 34.1257 9.6139 33.8326C9.90692 33.5396 10.3043 33.375 10.7188 33.375H23.2188V31.8125H11.5C11.0856 31.8125 10.6882 31.6479 10.3951 31.3549C10.1021 31.0618 9.9375 30.6644 9.9375 30.25C9.9375 29.8356 10.1021 29.4382 10.3951 29.1451C10.6882 28.8521 11.0856 28.6875 11.5 28.6875H27.9062C28.0697 28.6875 28.2291 28.6362 28.3618 28.5409C28.4946 28.4456 28.5942 28.311 28.6465 28.1561C28.6987 28.0013 28.7011 27.8339 28.6533 27.6776C28.6055 27.5213 28.5098 27.3839 28.3798 27.2849L23.9836 23.9348C23.9752 23.9284 23.9667 23.9222 23.9581 23.9162C23.6825 23.7227 23.4887 23.4337 23.4141 23.1054C23.3394 22.777 23.3894 22.4326 23.5542 22.139C23.7191 21.8454 23.9871 21.6235 24.3063 21.5162C24.6255 21.409 24.9731 21.4241 25.2818 21.5586C25.2876 21.561 25.2933 21.5636 25.2991 21.5658L30.5688 23.7229C33.2006 24.8755 35.6698 26.3682 37.9135 28.1629C38.1899 28.3837 38.4629 28.6875 38.8438 28.6875H47.4375V27.125H39.1179L38.8895 26.9424ZM39.2756 42.8325C37.4461 43.7473 32.774 45.875 28.9154 45.875H14.625C14.2106 45.875 13.8132 45.7104 13.5201 45.4174C13.2271 45.1243 13.0625 44.7269 13.0625 44.3125C13.0625 43.8981 13.2271 43.5007 13.5201 43.2076C13.8132 42.9146 14.2106 42.75 14.625 42.75H23.2188V41.1875H12.2812C11.867 41.187 11.4699 41.0222 11.1769 40.7293C10.884 40.4364 10.7192 40.0392 10.7188 39.625H9.15625C9.15715 40.3929 9.44034 41.1336 9.95195 41.7063C10.4635 42.2789 11.1678 42.6434 11.9308 42.7305C11.6518 43.2051 11.5032 43.745 11.5 44.2955C11.4969 44.846 11.6392 45.3876 11.9127 45.8654C12.1862 46.3432 12.5811 46.7402 13.0574 47.0163C13.5337 47.2924 14.0745 47.4377 14.625 47.4375H28.9154C30.6325 47.4375 34.3188 47.0289 39.8086 44.3125H47.4375V42.75H39.625C39.5037 42.75 39.3841 42.7782 39.2756 42.8325ZM13.1589 23.5552L13.7448 13.0083L12.1849 12.9218L11.5989 23.4687L13.1589 23.5552ZM14.7251 17.1294L15.4087 25.6255L16.9663 25.5001L16.2827 17.004L14.7251 17.1294ZM6.03125 31.8125C6.03125 32.2761 5.89379 32.7292 5.63626 33.1146C5.37872 33.5 5.01268 33.8004 4.58441 33.9778C4.15615 34.1552 3.6849 34.2016 3.23026 34.1112C2.77561 34.0208 2.358 33.7976 2.03022 33.4698C1.70244 33.142 1.47922 32.7244 1.38878 32.2697C1.29835 31.8151 1.34476 31.3439 1.52216 30.9156C1.69955 30.4873 1.99995 30.1213 2.38538 29.8637C2.77081 29.6062 3.22395 29.4688 3.6875 29.4688C4.30888 29.4695 4.9046 29.7166 5.34398 30.156C5.78336 30.5954 6.03053 31.1911 6.03125 31.8125ZM4.46875 31.8125C4.46875 31.658 4.42293 31.5069 4.33709 31.3785C4.25124 31.25 4.12923 31.1499 3.98647 31.0907C3.84372 31.0316 3.68663 31.0161 3.53509 31.0463C3.38354 31.0764 3.24433 31.1508 3.13507 31.2601C3.02581 31.3693 2.95141 31.5085 2.92126 31.6601C2.89112 31.8116 2.90659 31.9687 2.96572 32.1115C3.02485 32.2542 3.12498 32.3762 3.25346 32.4621C3.38194 32.5479 3.53298 32.5938 3.6875 32.5938C3.89463 32.5935 4.09321 32.5111 4.23967 32.3647C4.38613 32.2182 4.46852 32.0196 4.46875 31.8125ZM21.6562 13.0625C21.1927 13.0625 20.7396 12.925 20.3541 12.6675C19.9687 12.41 19.6683 12.0439 19.4909 11.6157C19.3135 11.1874 19.2671 10.7162 19.3575 10.2615C19.448 9.80686 19.6712 9.38925 19.999 9.06147C20.3267 8.73369 20.7444 8.51047 21.199 8.42003C21.6537 8.3296 22.1249 8.37601 22.5532 8.55341C22.9814 8.7308 23.3475 9.0312 23.605 9.41663C23.8625 9.80206 24 10.2552 24 10.7188C23.9993 11.3401 23.7521 11.9359 23.3127 12.3752C22.8734 12.8146 22.2776 13.0618 21.6562 13.0625ZM21.6562 11.5C21.8108 11.5 21.9618 11.4542 22.0903 11.3683C22.2188 11.2825 22.3189 11.1605 22.378 11.0177C22.4372 10.875 22.4526 10.7179 22.4225 10.5663C22.3923 10.4148 22.3179 10.2756 22.2087 10.1663C22.0994 10.0571 21.9602 9.98266 21.8087 9.95251C21.6571 9.92237 21.5 9.93784 21.3573 9.99697C21.2145 10.0561 21.0925 10.1562 21.0067 10.2847C20.9208 10.4132 20.875 10.5642 20.875 10.7188C20.8752 10.9259 20.9576 11.1245 21.1041 11.2709C21.2505 11.4174 21.4491 11.4998 21.6562 11.5ZM29.4688 39.625C29.0052 39.625 28.5521 39.4875 28.1666 39.23C27.7812 38.9725 27.4808 38.6064 27.3034 38.1782C27.126 37.7499 27.0796 37.2787 27.17 36.824C27.2605 36.3694 27.4837 35.9517 27.8115 35.624C28.1392 35.2962 28.5569 35.073 29.0115 34.9825C29.4662 34.8921 29.9374 34.9385 30.3657 35.1159C30.7939 35.2933 31.16 35.5937 31.4175 35.9791C31.675 36.3646 31.8125 36.8177 31.8125 37.2812C31.8118 37.9026 31.5646 38.4983 31.1252 38.9377C30.6859 39.3771 30.0901 39.6243 29.4688 39.625ZM29.4688 38.0625C29.6233 38.0625 29.7743 38.0167 29.9028 37.9308C30.0313 37.845 30.1314 37.723 30.1905 37.5802C30.2497 37.4375 30.2651 37.2804 30.235 37.1288C30.2048 36.9773 30.1304 36.8381 30.0212 36.7288C29.9119 36.6196 29.7727 36.5452 29.6212 36.515C29.4696 36.4849 29.3125 36.5003 29.1698 36.5595C29.027 36.6186 28.905 36.7187 28.8192 36.8472C28.7333 36.9757 28.6875 37.1267 28.6875 37.2812C28.6877 37.4884 28.7701 37.687 28.9166 37.8334C29.063 37.9799 29.2616 38.0623 29.4688 38.0625Z"
      fill="#4945FF" />
</svg>