<svg display="none" xmlns="http://www.w3.org/2000/svg">
   <symbol viewBox="0 0 16 24" id="arrow-left">
      <path d="M11.5625 23.4185C11.9252 23.7813 12.5201 23.7813 12.8828 23.4185L15.2768 21.01C15.6395 20.6473 15.6395 20.067 15.2768 19.7042L7.57254 12L15.2768 4.29576C15.6395 3.93304 15.6395 3.35268 15.2768 2.98996L12.8828 0.581473C12.5201 0.21875 11.9252 0.21875 11.5625 0.581473L0.811384 11.3471C0.448661 11.7098 0.448661 12.2902 0.811384 12.6529L11.5625 23.4185Z"/>
   </symbol>
   <symbol viewBox="0 0 16 24" id="arrow-right">
      <path d="M4.4375 23.4185C4.07478 23.7813 3.47991 23.7813 3.11719 23.4185L0.723213 21.01C0.36049 20.6473 0.36049 20.067 0.723213 19.7042L8.42746 12L0.723213 4.29576C0.36049 3.93304 0.36049 3.35268 0.723213 2.98996L3.11719 0.581473C3.47991 0.21875 4.07478 0.21875 4.4375 0.581473L15.1886 11.3471C15.5513 11.7098 15.5513 12.2902 15.1886 12.6529L4.4375 23.4185Z"/>
   </symbol>
   <symbol viewBox="0 0 18 15" id="burger">
      <path d="M17.1429 12.8571C17.1429 12.4665 16.8192 12.1429 16.4286 12.1429H0.714286C0.323661 12.1429 0 12.4665 0 12.8571V14.2857C0 14.6763 0.323661 15 0.714286 15H16.4286C16.8192 15 17.1429 14.6763 17.1429 14.2857V12.8571ZM17.1429 7.14286C17.1429 6.75223 16.8192 6.42857 16.4286 6.42857H0.714286C0.323661 6.42857 0 6.75223 0 7.14286V8.57143C0 8.96205 0.323661 9.28571 0.714286 9.28571H16.4286C16.8192 9.28571 17.1429 8.96205 17.1429 8.57143V7.14286ZM17.1429 1.42857C17.1429 1.03795 16.8192 0.714285 16.4286 0.714285H0.714286C0.323661 0.714285 0 1.03795 0 1.42857V2.85714C0 3.24777 0.323661 3.57143 0.714286 3.57143H16.4286C16.8192 3.57143 17.1429 3.24777 17.1429 2.85714V1.42857Z"/>
   </symbol>
   <symbol viewBox="0 0 16 16" id="call-delivery">
      <path d="M11.4996 16C10.9831 16 10.471 15.9087 9.97022 15.7268C7.76413 14.9254 5.7164 13.6201 4.04834 11.9521C2.38028 10.284 1.07503 8.23629 0.273652 6.03019C0.0161317 5.32122 -0.0598652 4.58937 0.0478491 3.8549C0.148751 3.16693 0.41524 2.49905 0.818536 1.92345C1.22361 1.34532 1.76365 0.864465 2.38025 0.532884C3.03779 0.179305 3.75548 0 4.51345 0C4.74919 0 4.95293 0.164712 5.00233 0.395203L5.78711 4.05752C5.82264 4.22336 5.77168 4.39591 5.65178 4.51585L4.3108 5.85679C5.57581 8.37188 7.62848 10.4245 10.1436 11.6896L11.4845 10.3486C11.6044 10.2287 11.777 10.1778 11.9428 10.2132L15.6051 10.998C15.8357 11.0474 16.0004 11.2512 16.0004 11.4869C16.0004 12.2449 15.821 12.9626 15.4674 13.6201C15.1359 14.2367 14.655 14.7768 14.0769 15.1818C13.5013 15.5851 12.8334 15.8516 12.1454 15.9525C11.9298 15.9842 11.7143 16 11.4996 16ZM4.11396 1.02183C3.11416 1.1322 2.22676 1.65624 1.63747 2.4973C0.974811 3.44305 0.820286 4.60628 1.21352 5.6888C2.75421 9.93006 6.07035 13.2462 10.3116 14.7869C11.3941 15.1801 12.5573 15.0256 13.5031 14.3629C14.3442 13.7737 14.8682 12.8863 14.9786 11.8864L11.9993 11.248L10.5989 12.6485C10.4498 12.7975 10.2234 12.8371 10.0327 12.7475C7.05816 11.35 4.65038 8.94226 3.25294 5.96769C3.16335 5.77698 3.20291 5.55055 3.35193 5.40156L4.75237 4.00112L4.11396 1.02183Z"/>
   </symbol>
   <symbol viewBox="0 0 14 14" id="call">
      <path d="M5.79668 8.2028C4.46041 6.86652 4.15868 5.53025 4.09061 4.99487C4.07159 4.84683 4.12254 4.69838 4.22844 4.59321L5.30982 3.51232C5.46889 3.35334 5.49712 3.10559 5.37789 2.9149L3.65613 0.241384C3.52422 0.0302372 3.25338 -0.0459678 3.03072 0.0654186L0.266684 1.36718C0.0866289 1.45584 -0.0192769 1.64714 0.00116636 1.8468C0.145994 3.22266 0.745821 6.60487 4.06961 9.9289C7.39341 13.2529 10.7751 13.8525 12.1517 13.9973C12.3514 14.0178 12.5427 13.9119 12.6313 13.7318L13.9331 10.9678C14.0441 10.7456 13.9684 10.4755 13.7581 10.3434L11.0846 8.62207C10.894 8.50272 10.6463 8.53074 10.4872 8.68966L9.40627 9.77104C9.3011 9.87695 9.15265 9.92789 9.00461 9.90887C8.46924 9.8408 7.13296 9.53907 5.79668 8.2028Z" />
      <path d="M11.1027 7.4828C10.8361 7.4828 10.6199 7.26666 10.6199 7.00004C10.6177 5.00132 8.99795 3.3816 6.99924 3.37934C6.73262 3.37934 6.51648 3.1632 6.51648 2.89658C6.51648 2.62996 6.73262 2.41382 6.99924 2.41382C9.53097 2.41661 11.5827 4.4683 11.5854 7.00004C11.5854 7.26666 11.3693 7.4828 11.1027 7.4828Z" />
      <path d="M13.5165 7.48276C13.2499 7.48276 13.0337 7.26662 13.0337 7C13.03 3.66879 10.3305 0.969242 6.99924 0.965517C6.73262 0.965517 6.51648 0.749379 6.51648 0.482759C6.51648 0.216138 6.73262 0 6.99924 0C10.8635 0.00425693 13.995 3.13577 13.9993 7C13.9993 7.12804 13.9484 7.25083 13.8579 7.34136C13.7673 7.4319 13.6445 7.48276 13.5165 7.48276Z" />
   </symbol>
</svg>