<svg display="none" xmlns="http://www.w3.org/2000/svg">
   <!-- arrow-left -->
   <symbol viewBox="0 0 16 24" id="arrow-left">
      <path
         d="M11.5625 23.4185C11.9252 23.7813 12.5201 23.7813 12.8828 23.4185L15.2768 21.01C15.6395 20.6473 15.6395 20.067 15.2768 19.7042L7.57254 12L15.2768 4.29576C15.6395 3.93304 15.6395 3.35268 15.2768 2.98996L12.8828 0.581473C12.5201 0.21875 11.9252 0.21875 11.5625 0.581473L0.811384 11.3471C0.448661 11.7098 0.448661 12.2902 0.811384 12.6529L11.5625 23.4185Z" />
   </symbol>
   <!-- arrow-right -->
   <symbol viewBox="0 0 16 24" id="arrow-right">
      <path
         d="M4.4375 23.4185C4.07478 23.7813 3.47991 23.7813 3.11719 23.4185L0.723213 21.01C0.36049 20.6473 0.36049 20.067 0.723213 19.7042L8.42746 12L0.723213 4.29576C0.36049 3.93304 0.36049 3.35268 0.723213 2.98996L3.11719 0.581473C3.47991 0.21875 4.07478 0.21875 4.4375 0.581473L15.1886 11.3471C15.5513 11.7098 15.5513 12.2902 15.1886 12.6529L4.4375 23.4185Z" />
   </symbol>
   <!-- burger -->
   <symbol viewBox="0 0 18 15" id="burger">
      <path
         d="M17.1429 12.8571C17.1429 12.4665 16.8192 12.1429 16.4286 12.1429H0.714286C0.323661 12.1429 0 12.4665 0 12.8571V14.2857C0 14.6763 0.323661 15 0.714286 15H16.4286C16.8192 15 17.1429 14.6763 17.1429 14.2857V12.8571ZM17.1429 7.14286C17.1429 6.75223 16.8192 6.42857 16.4286 6.42857H0.714286C0.323661 6.42857 0 6.75223 0 7.14286V8.57143C0 8.96205 0.323661 9.28571 0.714286 9.28571H16.4286C16.8192 9.28571 17.1429 8.96205 17.1429 8.57143V7.14286ZM17.1429 1.42857C17.1429 1.03795 16.8192 0.714285 16.4286 0.714285H0.714286C0.323661 0.714285 0 1.03795 0 1.42857V2.85714C0 3.24777 0.323661 3.57143 0.714286 3.57143H16.4286C16.8192 3.57143 17.1429 3.24777 17.1429 2.85714V1.42857Z" />
   </symbol>
   <!-- call-delivery -->
   <symbol viewBox="0 0 16 16" id="call-delivery">
      <path
         d="M11.4996 16C10.9831 16 10.471 15.9087 9.97022 15.7268C7.76413 14.9254 5.7164 13.6201 4.04834 11.9521C2.38028 10.284 1.07503 8.23629 0.273652 6.03019C0.0161317 5.32122 -0.0598652 4.58937 0.0478491 3.8549C0.148751 3.16693 0.41524 2.49905 0.818536 1.92345C1.22361 1.34532 1.76365 0.864465 2.38025 0.532884C3.03779 0.179305 3.75548 0 4.51345 0C4.74919 0 4.95293 0.164712 5.00233 0.395203L5.78711 4.05752C5.82264 4.22336 5.77168 4.39591 5.65178 4.51585L4.3108 5.85679C5.57581 8.37188 7.62848 10.4245 10.1436 11.6896L11.4845 10.3486C11.6044 10.2287 11.777 10.1778 11.9428 10.2132L15.6051 10.998C15.8357 11.0474 16.0004 11.2512 16.0004 11.4869C16.0004 12.2449 15.821 12.9626 15.4674 13.6201C15.1359 14.2367 14.655 14.7768 14.0769 15.1818C13.5013 15.5851 12.8334 15.8516 12.1454 15.9525C11.9298 15.9842 11.7143 16 11.4996 16ZM4.11396 1.02183C3.11416 1.1322 2.22676 1.65624 1.63747 2.4973C0.974811 3.44305 0.820286 4.60628 1.21352 5.6888C2.75421 9.93006 6.07035 13.2462 10.3116 14.7869C11.3941 15.1801 12.5573 15.0256 13.5031 14.3629C14.3442 13.7737 14.8682 12.8863 14.9786 11.8864L11.9993 11.248L10.5989 12.6485C10.4498 12.7975 10.2234 12.8371 10.0327 12.7475C7.05816 11.35 4.65038 8.94226 3.25294 5.96769C3.16335 5.77698 3.20291 5.55055 3.35193 5.40156L4.75237 4.00112L4.11396 1.02183Z" />
   </symbol>
   <!-- call -->
   <symbol viewBox="0 0 14 14" id="call">
      <path
         d="M5.79668 8.2028C4.46041 6.86652 4.15868 5.53025 4.09061 4.99487C4.07159 4.84683 4.12254 4.69838 4.22844 4.59321L5.30982 3.51232C5.46889 3.35334 5.49712 3.10559 5.37789 2.9149L3.65613 0.241384C3.52422 0.0302372 3.25338 -0.0459678 3.03072 0.0654186L0.266684 1.36718C0.0866289 1.45584 -0.0192769 1.64714 0.00116636 1.8468C0.145994 3.22266 0.745821 6.60487 4.06961 9.9289C7.39341 13.2529 10.7751 13.8525 12.1517 13.9973C12.3514 14.0178 12.5427 13.9119 12.6313 13.7318L13.9331 10.9678C14.0441 10.7456 13.9684 10.4755 13.7581 10.3434L11.0846 8.62207C10.894 8.50272 10.6463 8.53074 10.4872 8.68966L9.40627 9.77104C9.3011 9.87695 9.15265 9.92789 9.00461 9.90887C8.46924 9.8408 7.13296 9.53907 5.79668 8.2028Z" />
      <path
         d="M11.1027 7.4828C10.8361 7.4828 10.6199 7.26666 10.6199 7.00004C10.6177 5.00132 8.99795 3.3816 6.99924 3.37934C6.73262 3.37934 6.51648 3.1632 6.51648 2.89658C6.51648 2.62996 6.73262 2.41382 6.99924 2.41382C9.53097 2.41661 11.5827 4.4683 11.5854 7.00004C11.5854 7.26666 11.3693 7.4828 11.1027 7.4828Z" />
      <path
         d="M13.5165 7.48276C13.2499 7.48276 13.0337 7.26662 13.0337 7C13.03 3.66879 10.3305 0.969242 6.99924 0.965517C6.73262 0.965517 6.51648 0.749379 6.51648 0.482759C6.51648 0.216138 6.73262 0 6.99924 0C10.8635 0.00425693 13.995 3.13577 13.9993 7C13.9993 7.12804 13.9484 7.25083 13.8579 7.34136C13.7673 7.4319 13.6445 7.48276 13.5165 7.48276Z" />
   </symbol>
   <!-- cart -->
   <symbol viewBox="0 0 24 22" id="cart">
      <path
         d="M6.93767 16.7805C5.88913 16.7269 5.90887 15.2521 6.93762 15.2009C9.85175 15.211 17.538 15.2036 20.5448 15.2057C21.3672 15.2057 22.0708 14.6461 22.2557 13.8449L23.9631 6.4515C24.0609 6.02818 23.9622 5.59004 23.6924 5.2495C23.4227 4.90896 23.0188 4.7109 22.5844 4.7109C21.3748 4.7109 11.1072 4.66443 5.84819 4.64346L5.01454 1.55027C4.81442 0.811081 4.13986 0.294853 3.37407 0.294853H0.703499C0.31498 0.294853 0 0.609833 0 0.998352C0 1.38687 0.31498 1.70185 0.703499 1.70185H3.37407C3.50591 1.70185 3.62199 1.79073 3.65627 1.91722L6.85789 13.7958C6.29495 13.8163 5.77061 14.0453 5.37299 14.4487C4.95521 14.8727 4.73084 15.4339 4.74121 16.029C4.76194 17.2192 5.74726 18.1875 6.93767 18.1875H7.96346C7.81099 18.5075 7.7254 18.8653 7.7254 19.2428C7.7254 20.6005 8.82999 21.7051 10.1877 21.7051C11.5455 21.7051 12.6501 20.6005 12.6501 19.2428C12.6501 18.8653 12.5644 18.5075 12.412 18.1875H16.8541C16.7018 18.5074 16.6162 18.865 16.6162 19.2424C16.6162 20.6001 17.7209 21.7047 19.0786 21.7047C20.4363 21.7047 21.5409 20.6001 21.5409 19.2424C21.5409 18.8503 21.4484 18.4796 21.2847 18.1503C21.5631 18.0566 21.7638 17.794 21.7638 17.484C21.7638 17.0955 21.4488 16.7805 21.0603 16.7805H6.93767ZM11.243 19.2428C11.243 19.8247 10.7696 20.2981 10.1877 20.2981C9.60576 20.2981 9.13235 19.8247 9.13235 19.2428C9.13235 18.6612 9.60529 18.188 10.1868 18.1875H10.1886C10.7701 18.188 11.243 18.6612 11.243 19.2428ZM19.0786 20.2978C18.4967 20.2978 18.0233 19.8243 18.0233 19.2424C18.0233 18.6663 18.4875 18.1967 19.0615 18.1875H19.0958C19.6698 18.1967 20.134 18.6663 20.134 19.2424C20.134 19.8243 19.6605 20.2978 19.0786 20.2978ZM22.5895 6.12306C22.5937 6.12831 22.5931 6.1308 22.5922 6.13483L21.8728 9.25016H19.4367L19.8516 6.10679L22.5787 6.11776C22.5829 6.11785 22.5854 6.11785 22.5895 6.12306ZM15.3367 13.7987V10.6572H17.8319L17.4173 13.7987H15.3367ZM11.8482 13.7987L11.4302 10.6572H13.9297V13.7987H11.8482ZM8.6096 13.7987H8.6074C8.43593 13.7987 8.28487 13.683 8.24027 13.5182L7.46914 10.6572H10.0108L10.4288 13.7987H8.6096ZM11.243 9.25021L10.8199 6.07044L13.9296 6.08296V9.25021H11.243ZM15.3367 9.25021V6.08863L18.4331 6.10111L18.0175 9.25021H15.3367ZM9.39973 6.06467L9.82356 9.25016H7.08991L6.22789 6.05187L9.39973 6.06467ZM20.5448 13.7987H18.8364L19.251 10.6572H21.5478L20.8848 13.5282C20.848 13.6875 20.7082 13.7987 20.5448 13.7987Z" />
   </symbol>
   <!-- clock -->
   <symbol viewBox="0 0 16 16" id="clock">
      <path
         d="M10.8505 9.41285L8.61963 7.73972V4.33153C8.61963 3.98884 8.34263 3.71184 7.99994 3.71184C7.65725 3.71184 7.38025 3.98884 7.38025 4.33153V8.0496C7.38025 8.24478 7.47197 8.42885 7.62812 8.54535L10.1068 10.4044C10.2183 10.488 10.3485 10.5283 10.478 10.5283C10.667 10.5283 10.8529 10.4434 10.9744 10.2798C11.1802 10.0065 11.1244 9.61797 10.8505 9.41285Z" />
      <path
         d="M8 0C3.58853 0 0 3.58853 0 8C0 12.4115 3.58853 16 8 16C12.4115 16 16 12.4115 16 8C16 3.58853 12.4115 0 8 0ZM8 14.7607C4.27266 14.7607 1.23934 11.7273 1.23934 8C1.23934 4.27266 4.27266 1.23934 8 1.23934C11.728 1.23934 14.7607 4.27266 14.7607 8C14.7607 11.7273 11.7273 14.7607 8 14.7607Z" />
   </symbol>
   <!-- close -->
   <symbol viewBox="0 0 20 20" id="close">
      <path
         d="M12.2028 10L19.6805 2.52197C19.8862 2.31612 19.9997 2.04148 20 1.74864C20 1.45563 19.8865 1.18067 19.6805 0.975143L19.0252 0.320021C18.8192 0.11368 18.5446 0.000671387 18.2514 0.000671387C17.9587 0.000671387 17.6841 0.11368 17.478 0.320021L10.0003 7.79758L2.52228 0.320021C2.31659 0.11368 2.04179 0.000671387 1.74878 0.000671387C1.4561 0.000671387 1.1813 0.11368 0.97561 0.320021L0.32 0.975143C-0.106667 1.40181 -0.106667 2.09579 0.32 2.52197L7.79789 10L0.32 17.4777C0.114146 17.6839 0.000813008 17.9586 0.000813008 18.2514C0.000813008 18.5443 0.114146 18.8189 0.32 19.0249L0.975447 19.68C1.18114 19.8862 1.4561 19.9994 1.74862 19.9994C2.04163 19.9994 2.31642 19.8862 2.52211 19.68L10.0002 12.2023L17.4779 19.68C17.6839 19.8862 17.9585 19.9994 18.2512 19.9994H18.2515C18.5444 19.9994 18.819 19.8862 19.025 19.68L19.6803 19.0249C19.886 18.819 19.9995 18.5443 19.9995 18.2514C19.9995 17.9586 19.886 17.6839 19.6803 17.4779L12.2028 10Z" />
   </symbol>
   <!-- comments -->
   <symbol viewBox="0 0 20 20" id="comments">
      <g clip-path="url(#clip0)">
         <path
            d="M18.4592 12.5639C18.1841 12.5639 17.9611 12.7868 17.9611 13.062V17.4846C17.9601 18.3096 17.2918 18.9781 16.4668 18.9789H2.49052C1.66553 18.9781 0.99718 18.3096 0.996207 17.4846V4.5045C0.99718 3.67971 1.66553 3.01116 2.49052 3.01018H6.91313C7.18826 3.01018 7.41124 2.78721 7.41124 2.51208C7.41124 2.23715 7.18826 2.01398 6.91313 2.01398H2.49052C1.11567 2.01553 0.00155657 3.12965 0 4.5045V17.4848C0.00155657 18.8596 1.11567 19.9737 2.49052 19.9753H16.4668C17.8416 19.9737 18.9558 18.8596 18.9573 17.4848V13.062C18.9573 12.7868 18.7343 12.5639 18.4592 12.5639Z" />
         <path
            d="M18.7597 0.732339C17.8844 -0.143039 16.4651 -0.143039 15.5898 0.732339L6.70328 9.61882C6.64238 9.67972 6.59841 9.75521 6.57545 9.8381L5.40685 14.057C5.35879 14.23 5.40763 14.4152 5.53449 14.5423C5.66154 14.6691 5.84678 14.718 6.01975 14.6701L10.2387 13.5013C10.3215 13.4783 10.397 13.4344 10.4579 13.3735L19.3442 4.4868C20.2182 3.61083 20.2182 2.19279 19.3442 1.31683L18.7597 0.732339ZM7.7886 9.94259L15.0615 2.6695L17.4071 5.01506L10.134 12.2881L7.7886 9.94259ZM7.32007 10.8828L9.19399 12.7569L6.60191 13.475L7.32007 10.8828ZM18.6399 3.78245L18.1116 4.31071L15.7659 1.96495L16.2943 1.43669C16.7805 0.950454 17.569 0.950454 18.0552 1.43669L18.6399 2.02118C19.1253 2.508 19.1253 3.29582 18.6399 3.78245Z" />
      </g>
      <defs>
         <clipPath id="clip0">
            <rect width="20" height="20" fill="white" />
         </clipPath>
      </defs>
   </symbol>
   <!-- container -->
   <symbol viewBox="0 0 52 50" id="container">
      <path
         d="M47.3211 47.6563C47.4136 47.411 47.4731 47.15 47.4731 46.875C47.4731 46.6 47.4136 46.3391 47.3211 46.0938H49.1249V44.5313H47.4731V40.625C47.4731 40.193 47.1039 39.8438 46.6472 39.8438H44.1695V35.9375C44.1695 35.5055 43.8004 35.1563 43.3436 35.1563H42.5178V25C42.5178 24.568 42.1486 24.2188 41.6919 24.2188H10.3079C9.85121 24.2188 9.48204 24.568 9.48204 25V47.6563H6.17847V18.9789L25.9999 7.17346L45.8213 18.9797V38.2813H47.4731V19.9633L47.8588 20.193C47.9951 20.2735 48.147 20.3125 48.2982 20.3125C48.5509 20.3125 48.7978 20.2031 48.9597 20L51.4374 16.875C51.5761 16.7008 51.6307 16.4797 51.5894 16.2656C51.5481 16.0516 51.4134 15.8633 51.2194 15.7469L26.4426 0.903149C26.1733 0.741431 25.8281 0.741431 25.5589 0.903149L0.782083 15.7469C0.587998 15.8633 0.453378 16.0516 0.412083 16.2656C0.369136 16.4797 0.423645 16.7008 0.562395 16.875L3.04007 20C3.29775 20.3258 3.77677 20.4094 4.14099 20.193L4.52668 19.9633V47.6563H0.397217V49.2188H51.6026V47.6563H47.3211ZM3.90478 18.4867L2.41983 16.6141L25.9999 2.48752L49.58 16.6141L48.095 18.4867L26.4401 5.58831C26.3055 5.50862 26.1527 5.46877 25.9999 5.46877C25.8471 5.46877 25.6943 5.50862 25.5597 5.58831L3.90478 18.4867ZM45.8213 46.875C45.8213 47.3063 45.4513 47.6563 44.9954 47.6563C44.5395 47.6563 44.1695 47.3063 44.1695 46.875C44.1695 46.4438 44.5395 46.0938 44.9954 46.0938C45.4513 46.0938 45.8213 46.4438 45.8213 46.875ZM35.9106 46.875C35.9106 46.4438 36.2806 46.0938 36.7365 46.0938C37.1924 46.0938 37.5624 46.4438 37.5624 46.875C37.5624 47.3063 37.1924 47.6563 36.7365 47.6563C36.2806 47.6563 35.9106 47.3063 35.9106 46.875ZM34.2588 41.4063H35.9106V42.9688H37.5624V41.4063H39.2142V44.5313H34.2588V41.4063ZM39.0622 46.0938H42.6705C42.5772 46.3391 42.5178 46.6 42.5178 46.875C42.5178 47.15 42.5772 47.411 42.6697 47.6563H39.0614C39.1547 47.411 39.2142 47.15 39.2142 46.875C39.2142 46.6 39.1547 46.3391 39.0622 46.0938ZM45.8213 44.5313H40.866V41.4063H42.5178V42.9688H44.1695V41.4063H45.8213V44.5313ZM37.5624 39.8438V36.7188H39.2142V38.2813H40.866V36.7188H42.5178V39.8438H37.5624ZM36.7365 35.1563C36.2798 35.1563 35.9106 35.5055 35.9106 35.9375V39.8438H34.2588V34.375C34.2588 33.943 33.8896 33.5938 33.4329 33.5938H30.1294V35.1563H32.607V45.3125C32.607 45.7446 32.9762 46.0938 33.4329 46.0938H34.4108C34.3183 46.3391 34.2588 46.6 34.2588 46.875C34.2588 47.15 34.3183 47.411 34.4108 47.6563H30.9553V43.75C30.9553 43.318 30.5861 42.9688 30.1294 42.9688H24.3481V39.0625C24.3481 38.6305 23.9789 38.2813 23.5222 38.2813H17.741V34.375C17.741 33.943 17.3718 33.5938 16.9151 33.5938H11.1338V32.0313H40.866V35.1563H36.7365ZM11.1338 42.9688V39.8438H12.7856V41.4063H14.4374V39.8438H16.0892V42.9688H11.1338ZM14.4374 36.7188V35.1563H16.0892V38.2813H11.1338V35.1563H12.7856V36.7188H14.4374ZM21.0445 41.4063V39.8438H22.6963V42.9688H17.741V39.8438H19.3928V41.4063H21.0445ZM17.741 44.5313H19.3928V46.0938H21.0445V44.5313H22.6963V47.6563H17.741V44.5313ZM24.3481 44.5313H25.9999V46.0938H27.6517V44.5313H29.3035V47.6563H24.3481V44.5313ZM40.866 30.4688H11.1338V28.9063H40.866V30.4688ZM40.866 25.7813V27.3438H11.1338V25.7813H40.866ZM11.1338 44.5313H12.7856V46.0938H14.4374V44.5313H16.0892V47.6563H11.1338V44.5313Z" />
   </symbol>
   <!-- coupon -->
   <symbol viewBox="0 0 20 20" id="coupon">
      <g clip-path="url(#clip0)">
         <path
            d="M7.58591 0.392303C7.58591 0.175629 7.41028 0 7.1936 0H4.53293C4.31625 0 4.14063 0.175629 4.14063 0.392303L4.14062 19.6077C4.14062 19.8244 4.31625 20 4.53293 20H7.1936C7.41028 20 7.58591 19.8244 7.58591 19.6077C7.58591 18.2686 8.67538 17.1791 10.0145 17.1791C11.3536 17.1791 12.4431 18.2686 12.4431 19.6077C12.4431 19.8244 12.6187 20 12.8354 20H15.4961C15.7127 20 15.8884 19.8244 15.8884 19.6077V16.1197C15.8884 15.903 15.7127 15.7274 15.4961 15.7274C15.2794 15.7274 15.1038 15.903 15.1038 16.1197V19.2154H13.2039C13.0098 17.628 11.6534 16.3945 10.0145 16.3945C8.37555 16.3945 7.0192 17.628 6.8251 19.2154H4.92523L4.92523 5.74142H5.70969C5.92636 5.74142 6.10199 5.5658 6.10199 5.34912C6.10199 5.13245 5.92636 4.95682 5.70969 4.95682H4.92523V0.784607H6.8251C7.0192 2.37198 8.37555 3.6055 10.0145 3.6055C11.6534 3.6055 13.0098 2.37198 13.2039 0.784607H15.1038V4.95682H14.3192C14.1025 4.95682 13.927 5.13245 13.927 5.34912C13.927 5.5658 14.1025 5.74142 14.3192 5.74142H15.1038V12.8984C15.1038 13.1151 15.2794 13.2907 15.4961 13.2907C15.7127 13.2907 15.8884 13.1151 15.8884 12.8984L15.8884 0.392303C15.8884 0.175629 15.7127 0 15.4961 0H12.8354C12.6187 0 12.4431 0.175629 12.4431 0.392303C12.4431 1.73141 11.3536 2.82089 10.0145 2.82089C8.67538 2.82089 7.58591 1.73141 7.58591 0.392303Z" />
         <path
            d="M11.842 5.34915C11.842 5.13248 11.6664 4.95685 11.4497 4.95685H8.5798C8.36313 4.95685 8.1875 5.13248 8.1875 5.34915C8.1875 5.56583 8.36313 5.74146 8.5798 5.74146H11.4497C11.6664 5.74146 11.842 5.56583 11.842 5.34915Z" />
         <path
            d="M9.45829 11.6461C9.16746 11.3553 8.78065 11.195 8.36942 11.195C7.95805 11.195 7.57124 11.3553 7.2804 11.6461C6.67997 12.2465 6.67997 13.2235 7.2804 13.824C7.57124 14.1148 7.95805 14.275 8.36942 14.275C8.78065 14.275 9.16746 14.1148 9.45829 13.824C9.75858 13.5237 9.90858 13.1294 9.90858 12.735C9.90858 12.3407 9.75858 11.9462 9.45829 11.6461ZM8.36942 13.4904C8.16755 13.4904 7.97788 13.4118 7.83521 13.2692C7.68797 13.1219 7.61427 12.9284 7.61427 12.735C7.61427 12.5415 7.68797 12.3481 7.83521 12.2009C7.97788 12.0581 8.16755 11.9795 8.36942 11.9795C8.57114 11.9795 8.76081 12.0581 8.90348 12.2009C9.19813 12.4954 9.19813 12.9747 8.90348 13.2692C8.76081 13.4118 8.57114 13.4904 8.36942 13.4904Z" />
         <path
            d="M10.7589 10.3035C11.3593 10.9041 12.3363 10.9041 12.9367 10.3035C13.237 10.0033 13.3872 9.60889 13.3872 9.2146C13.3872 8.82016 13.237 8.42587 12.9367 8.12558C12.3363 7.52515 11.3593 7.52515 10.7589 8.12558C10.1584 8.72617 10.1586 9.70319 10.7589 10.3035ZM11.3137 8.68039C11.6082 8.38589 12.0874 8.38589 12.3819 8.68039C12.6764 8.97488 12.6766 9.45416 12.3819 9.74866C12.0874 10.0433 11.6082 10.0433 11.3137 9.74866C11.1664 9.60141 11.0927 9.40808 11.0927 9.2146C11.0927 9.02112 11.1664 8.82764 11.3137 8.68039Z" />
         <path
            d="M12.4452 12.7455L8.35916 8.65949C8.20596 8.50645 7.95755 8.50645 7.80435 8.65949C7.65115 8.81284 7.65115 9.0611 7.80435 9.2143L11.8904 13.3003C12.0321 13.4421 12.266 13.4527 12.4197 13.3236C12.5935 13.1776 12.6057 12.9062 12.4452 12.7455Z" />
         <path
            d="M15.0996 14.5161C15.0996 14.6797 15.2052 14.8294 15.359 14.8849C15.5125 14.9404 15.6901 14.8922 15.7942 14.766C15.8984 14.6395 15.9124 14.4576 15.8294 14.3167C15.7466 14.1758 15.5786 14.0998 15.4182 14.131C15.2359 14.1662 15.0996 14.3301 15.0996 14.5161Z" />
      </g>
      <defs>
         <clipPath id="clip0">
            <rect width="20" height="20" fill="white" transform="translate(0 20) rotate(-90)" />
         </clipPath>
      </defs>
   </symbol>
   <!-- credit-card -->
   <symbol viewBox="0 0 24 23" id="credit-card">
      <g clip-path="url(#clip0)">
         <path
            d="M23.8326 8.15565L21.1513 1.56105C20.6432 0.314409 19.1629 -0.306551 17.845 0.174077C17.8259 0.18107 17.8068 0.188252 17.7878 0.19567L4.38841 5.44988C3.11254 5.94496 2.48547 7.3111 2.97423 8.53096L3.34266 9.46122H2.4975C1.11883 9.46268 0.00154845 10.5196 0 11.8237V20.3287C0.00154845 21.6329 1.11883 22.6898 2.4975 22.6912H19.4805C20.8592 22.6898 21.9765 21.6329 21.978 20.3287V11.8237C21.9772 11.6955 21.9652 11.5675 21.9421 11.4412L22.406 11.2635C23.6933 10.7644 24.3259 9.38614 23.8326 8.15565ZM2.4975 10.2173H19.4805C20.3774 10.2197 21.1173 10.8823 21.1688 11.7293H0.809191C0.86074 10.8822 1.6006 10.2196 2.4975 10.2173ZM6.51389 7.94019L9.18482 6.67653L9.73387 7.97572L7.06294 9.239L6.51389 7.94019ZM21.1788 20.3288C21.1777 21.2156 20.418 21.9342 19.4805 21.9353H2.4975C1.55999 21.9342 0.8003 21.2156 0.799201 20.3288V15.5093H21.1788V20.3288ZM21.1788 14.7533H0.799201V12.4853H21.1788V14.7533ZM22.1063 10.565L21.6887 10.7249C21.2574 9.94888 20.4074 9.46249 19.4805 9.46126H8.38042L10.4204 8.49623C10.6064 8.40839 10.6902 8.2003 10.613 8.01768L9.76544 6.01428C9.68347 5.82046 9.45095 5.72615 9.24606 5.80364C9.23572 5.80756 9.22558 5.81186 9.21564 5.81658L5.82743 7.42006C5.64156 7.50804 5.55799 7.71608 5.63522 7.89861L6.29616 9.46126H4.19581L3.72268 8.26754C3.38726 7.42942 3.81808 6.49103 4.69451 6.15073L18.0935 0.89653C18.9893 0.545179 20.0165 0.947229 20.388 1.79456C20.3938 1.80775 20.3994 1.82102 20.4048 1.83435L23.0861 8.42894C23.4253 9.27448 22.9908 10.2218 22.1063 10.565Z" />
         <path
            d="M14.3743 20.8723C15.1189 21.2816 16.0384 21.2816 16.7831 20.8723C17.9281 21.5016 19.3955 21.1336 20.0607 20.0506C20.7259 18.9675 20.3369 17.5794 19.1919 16.9502C18.8245 16.7482 18.4069 16.6423 17.9819 16.6432C17.5606 16.6434 17.1469 16.7493 16.7831 16.9502C15.6381 16.3209 14.1707 16.6888 13.5055 17.7719C12.8403 18.855 13.2293 20.2431 14.3743 20.8723ZM17.4512 17.4915C17.6212 17.4323 17.8007 17.4011 17.9819 17.3993C18.8647 17.3993 19.5803 18.0762 19.5803 18.9113C19.5803 19.7463 18.8647 20.4233 17.9819 20.4233C17.8007 20.4215 17.6212 20.3903 17.4512 20.331C18.1587 19.5028 18.1587 18.3197 17.4512 17.4915ZM16.7831 17.9217C17.3159 18.4852 17.3159 19.3374 16.7831 19.9009C16.2503 19.3374 16.2503 18.4851 16.7831 17.9217ZM15.5843 17.3993C15.7655 17.401 15.945 17.4323 16.115 17.4915C15.4075 18.3197 15.4075 19.5028 16.115 20.331C15.945 20.3903 15.7655 20.4215 15.5843 20.4233C14.7015 20.4233 13.9859 19.7463 13.9859 18.9113C13.9859 18.0762 14.7015 17.3993 15.5843 17.3993Z" />
         <path d="M16.8551 7.81252L17.1797 8.50336L20.9919 6.90036L20.6673 6.20953L16.8551 7.81252Z" />
         <path d="M19.8179 4.60916L14.3115 7.01334L14.6463 7.69944L20.1527 5.29526L19.8179 4.60916Z" />
      </g>
      <defs>
         <clipPath id="clip0">
            <rect width="24" height="22.7027" fill="white" />
         </clipPath>
      </defs>
   </symbol>
   <!-- delivery-truck -->
   <symbol viewBox="0 0 26 26" id="delivery-truck">
      <g clip-path="url(#clip0)">
         <path
            d="M25.1174 12.0103L23.347 11.2441L21.8435 8.31848C21.4372 7.51742 20.6129 7.01821 19.7132 7.02401H17.1242V6.29261C17.1242 4.96912 16.0678 3.88943 14.7443 3.88943H2.3685C1.04501 3.88943 0.000154453 4.97493 0.000154453 6.29261V17.4958C-0.0114551 18.3027 0.632875 18.9644 1.43974 18.9761C1.44554 18.9761 1.45135 18.9761 1.46296 18.9761H1.77061C1.77061 19.0341 1.76481 19.0573 1.76481 19.0921C1.759 20.7523 3.09991 22.1048 4.76007 22.1106C6.42024 22.1164 7.77275 20.7755 7.77855 19.1154C7.77855 19.1038 7.77855 19.098 7.77855 19.0863C7.77855 19.0457 7.77855 19.0283 7.77275 18.9702H17.7744C17.7744 19.0283 17.7744 19.0515 17.7744 19.0863C17.7686 20.7465 19.1095 22.099 20.7696 22.1048C22.4298 22.1106 23.7823 20.7697 23.7881 19.1096C23.7881 19.098 23.7881 19.0921 23.7881 19.0805C23.7881 19.0399 23.7881 19.0225 23.7881 18.9644H24.5369C25.3438 18.9644 25.9997 18.3085 25.9997 17.5016C25.9997 17.4958 25.9997 17.49 25.9997 17.4784V13.357C26.0114 12.7882 25.6631 12.2483 25.1174 12.0103ZM4.77749 20.9555C3.75584 20.9555 2.93157 20.1312 2.93157 19.1096C2.93157 18.0879 3.75584 17.2636 4.77749 17.2636C5.79913 17.2636 6.6234 18.0879 6.6234 19.1096C6.6234 20.1254 5.79332 20.9555 4.77749 20.9555ZM15.9633 17.8267H7.49993C7.01232 16.7644 5.94425 16.0853 4.77749 16.0911C3.60492 16.0853 2.54265 16.7586 2.05505 17.8267H1.46296C1.28301 17.8267 1.16111 17.6874 1.16111 17.5074V14.518H15.9633V17.8267ZM15.9633 6.29842V13.357H1.16111V6.29842C1.16111 5.61926 1.68934 5.0562 2.3685 5.0562H14.7443C15.4234 5.062 15.9691 5.61926 15.9633 6.29261V6.29842ZM17.1242 8.19078H19.7132C20.1718 8.18497 20.6013 8.43458 20.8161 8.84672L21.977 11.0932H17.1242V8.19078ZM20.7871 20.9555C19.7654 20.9555 18.9411 20.1312 18.9411 19.1096C18.9411 18.0879 19.7654 17.2636 20.7871 17.2636C21.8087 17.2636 22.633 18.0879 22.633 19.1096C22.633 20.1254 21.8087 20.9555 20.7871 20.9555ZM24.8446 17.5074C24.8446 17.6874 24.7227 17.8267 24.5427 17.8267H23.5095C22.8071 16.3233 21.0192 15.6731 19.5158 16.3755C18.8773 16.6716 18.3607 17.1882 18.0646 17.8267H17.1242V12.2541H22.8129L24.6588 13.0668C24.7749 13.1248 24.8504 13.2525 24.8446 13.3802V17.5074Z" />
      </g>
      <defs>
         <clipPath id="clip0">
            <rect width="26" height="26" fill="white" />
         </clipPath>
      </defs>
   </symbol>
   <!-- depends -->
   <symbol viewBox="0 0 26 30" id="depends">
      <path
         d="M24.9337 4.85777L13.4494 0.0895825C13.1617 -0.0298315 12.8383 -0.0298901 12.5506 0.0895825L1.06627 4.85777C0.628867 5.03941 0.34375 5.46644 0.34375 5.94005V11.7364C0.34375 19.7177 5.16772 26.897 12.5571 29.9131C12.841 30.0289 13.159 30.0289 13.4429 29.9131C20.8322 26.897 25.6562 19.7177 25.6562 11.7364V5.94005C25.6562 5.46644 25.3712 5.03941 24.9337 4.85777ZM23.3125 11.7364C23.3125 18.5213 19.3281 24.7672 13 27.5552C6.84098 24.8417 2.6875 18.7052 2.6875 11.7364V6.7224L13 2.44072L23.3125 6.7224V11.7364ZM11.7047 15.6865L16.7417 10.6496C17.1993 10.192 17.9413 10.1919 18.3989 10.6496C18.8566 11.1073 18.8566 11.8492 18.3989 12.3068L12.5334 18.1724C12.0756 18.6301 11.3337 18.6299 10.8761 18.1724L7.60105 14.8973C7.14338 14.4397 7.14338 13.6977 7.60105 13.2401C8.05873 12.7825 8.8007 12.7824 9.25832 13.2401L11.7047 15.6865Z" />
   </symbol>
   <!-- home -->
   <symbol viewBox="0 0 15 12" id="home">
      <path
         d="M12.5714 7.14286C12.5714 7.125 12.5714 7.10714 12.5625 7.08929L7.42857 2.85714L2.29464 7.08929C2.29464 7.10714 2.28571 7.125 2.28571 7.14286V11.4286C2.28571 11.7411 2.54464 12 2.85714 12H6.28571V8.57143H8.57143V12H12C12.3125 12 12.5714 11.7411 12.5714 11.4286V7.14286ZM14.5625 6.52679C14.6607 6.41071 14.6429 6.22321 14.5268 6.125L12.5714 4.5V0.857142C12.5714 0.696428 12.4464 0.571428 12.2857 0.571428H10.5714C10.4107 0.571428 10.2857 0.696428 10.2857 0.857142V2.59821L8.10714 0.776785C7.73214 0.464285 7.125 0.464285 6.75 0.776785L0.330357 6.125C0.214286 6.22321 0.196429 6.41071 0.294643 6.52679L0.848214 7.1875C0.892857 7.24107 0.964286 7.27679 1.03571 7.28571C1.11607 7.29464 1.1875 7.26786 1.25 7.22321L7.42857 2.07143L13.6071 7.22321C13.6607 7.26786 13.7232 7.28571 13.7946 7.28571C13.8036 7.28571 13.8125 7.28571 13.8214 7.28571C13.8929 7.27679 13.9643 7.24107 14.0089 7.1875L14.5625 6.52679Z" />
   </symbol>
   <!-- keep-dist -->
   <symbol viewBox="0 0 50 50" id="keep-dist">
      <path
         d="M42.5945 43.1081C41.8701 43.1074 41.1757 42.8191 40.6639 42.3066C40.152 41.7941 39.8646 41.0993 39.8647 40.375V31.0324C39.8647 30.8532 39.9359 30.6813 40.0626 30.5546C40.1894 30.4279 40.3612 30.3567 40.5404 30.3567C40.7196 30.3567 40.8915 30.4279 41.0182 30.5546C41.1449 30.6813 41.2161 30.8532 41.2161 31.0324V40.375C41.212 40.5585 41.2447 40.741 41.3121 40.9117C41.3795 41.0825 41.4804 41.2381 41.6088 41.3693C41.7371 41.5005 41.8904 41.6048 42.0596 41.676C42.2288 41.7472 42.4106 41.7839 42.5941 41.7839C42.7777 41.7839 42.9595 41.7472 43.1287 41.676C43.2979 41.6048 43.4512 41.5005 43.5795 41.3693C43.7079 41.2381 43.8088 41.0825 43.8762 40.9117C43.9436 40.741 43.9763 40.5585 43.9722 40.375V24.1142C43.9722 23.935 44.0434 23.7631 44.1701 23.6364C44.2968 23.5097 44.4687 23.4385 44.6479 23.4385C44.8271 23.4385 44.9989 23.5097 45.1256 23.6364C45.2524 23.7631 45.3235 23.935 45.3235 24.1142V40.375C45.3237 41.0992 45.0364 41.7938 44.5247 42.3063C44.0129 42.8188 43.3187 43.1072 42.5945 43.1081Z" />
      <path
         d="M46.311 31.5805C45.6911 31.58 45.0967 31.3335 44.6582 30.8952C44.2198 30.457 43.9732 29.8626 43.9725 29.2427V24.1143C43.9725 23.9351 44.0437 23.7633 44.1704 23.6366C44.2971 23.5098 44.469 23.4387 44.6482 23.4387C44.8274 23.4387 44.9992 23.5098 45.1259 23.6366C45.2526 23.7633 45.3238 23.9351 45.3238 24.1143V29.2427C45.3306 29.5 45.4375 29.7444 45.6218 29.924C45.8061 30.1035 46.0533 30.204 46.3106 30.204C46.568 30.204 46.8152 30.1035 46.9995 29.924C47.1838 29.7444 47.2907 29.5 47.2975 29.2427V20.9691C47.2966 20.2563 47.013 19.573 46.509 19.069C46.005 18.565 45.3217 18.2814 44.609 18.2805H36.4725C35.7597 18.2814 35.0764 18.565 34.5724 19.069C34.0684 19.573 33.7849 20.2563 33.784 20.9691V29.2427C33.7907 29.5 33.8976 29.7444 34.082 29.924C34.2663 30.1035 34.5135 30.204 34.7708 30.204C35.0281 30.204 35.2753 30.1035 35.4596 29.924C35.644 29.7444 35.7509 29.5 35.7576 29.2427V24.1143C35.7576 23.9351 35.8288 23.7633 35.9555 23.6366C36.0822 23.5098 36.2541 23.4387 36.4333 23.4387C36.6125 23.4387 36.7843 23.5098 36.9111 23.6366C37.0378 23.7633 37.109 23.9351 37.109 24.1143V29.2427C37.0985 29.8559 36.8476 30.4405 36.4103 30.8705C35.9729 31.3005 35.3841 31.5415 34.7708 31.5415C34.1575 31.5415 33.5687 31.3005 33.1313 30.8705C32.694 30.4405 32.443 29.8559 32.4326 29.2427V20.9691C32.4339 19.898 32.8599 18.8712 33.6172 18.1138C34.3746 17.3565 35.4014 16.9305 36.4725 16.9292H44.609C45.68 16.9305 46.7068 17.3565 47.4642 18.1138C48.2215 18.8712 48.6476 19.898 48.6488 20.9691V29.2427C48.6481 29.8625 48.4016 30.4567 47.9633 30.895C47.525 31.3333 46.9308 31.5798 46.311 31.5805Z" />
      <path
         d="M38.4864 43.1081C37.7627 43.1072 37.069 42.8193 36.5574 42.3075C36.0458 41.7958 35.758 41.102 35.7573 40.3783V24.1142C35.7573 23.935 35.8285 23.7631 35.9552 23.6364C36.0819 23.5097 36.2538 23.4385 36.433 23.4385C36.6122 23.4385 36.7841 23.5097 36.9108 23.6364C37.0375 23.7631 37.1087 23.935 37.1087 24.1142V40.375C37.1046 40.5585 37.1372 40.741 37.2047 40.9117C37.2721 41.0825 37.373 41.2381 37.5013 41.3693C37.6297 41.5005 37.783 41.6048 37.9522 41.676C38.1214 41.7472 38.3031 41.7839 38.4867 41.7839C38.6703 41.7839 38.852 41.7472 39.0212 41.676C39.1904 41.6048 39.3437 41.5005 39.4721 41.3693C39.6005 41.2381 39.7013 41.0825 39.7687 40.9117C39.8362 40.741 39.8688 40.5585 39.8647 40.375V31.0324C39.8647 30.8532 39.9359 30.6813 40.0626 30.5546C40.1894 30.4279 40.3612 30.3567 40.5404 30.3567C40.7196 30.3567 40.8915 30.4279 41.0182 30.5546C41.1449 30.6813 41.2161 30.8532 41.2161 31.0324V40.375C41.2163 41.0993 40.9288 41.7941 40.417 42.3066C39.9051 42.8191 39.2107 43.1074 38.4864 43.1081Z" />
      <path
         d="M40.5405 15.4056C39.6985 15.4056 38.8755 15.1559 38.1755 14.6882C37.4755 14.2205 36.9299 13.5557 36.6077 12.7778C36.2855 12 36.2012 11.1441 36.3655 10.3184C36.5297 9.49266 36.9352 8.73418 37.5305 8.13887C38.1258 7.54355 38.8843 7.13813 39.71 6.97388C40.5357 6.80964 41.3916 6.89393 42.1694 7.21612C42.9473 7.5383 43.6121 8.0839 44.0798 8.78392C44.5476 9.48394 44.7972 10.3069 44.7972 11.1488C44.7961 12.2775 44.3473 13.3596 43.5493 14.1576C42.7512 14.9557 41.6691 15.4045 40.5405 15.4056ZM40.5405 8.24344C39.9658 8.24344 39.4041 8.41384 38.9263 8.73309C38.4485 9.05234 38.0761 9.5061 37.8562 10.037C37.6363 10.5679 37.5788 11.1521 37.6909 11.7157C37.803 12.2793 38.0797 12.7969 38.486 13.2033C38.8924 13.6096 39.41 13.8863 39.9736 13.9984C40.5372 14.1105 41.1214 14.053 41.6523 13.8331C42.1832 13.6132 42.637 13.2408 42.9562 12.763C43.2755 12.2852 43.4459 11.7235 43.4459 11.1488C43.445 10.3789 43.1385 9.64074 42.5937 9.0966C42.0489 8.55246 41.3104 8.24682 40.5405 8.24682V8.24344Z" />
      <path
         d="M7.40532 43.1081C6.68169 43.1072 5.98796 42.8193 5.47634 42.3075C4.96472 41.7958 4.67698 41.102 4.67627 40.3783V24.1142C4.67627 23.935 4.74746 23.7631 4.87417 23.6364C5.00088 23.5097 5.17274 23.4385 5.35195 23.4385C5.53115 23.4385 5.70301 23.5097 5.82972 23.6364C5.95643 23.7631 6.02762 23.935 6.02762 24.1142V40.375C6.02356 40.5585 6.0562 40.741 6.12362 40.9117C6.19105 41.0825 6.29191 41.2381 6.42027 41.3693C6.54864 41.5005 6.70192 41.6048 6.87114 41.676C7.04035 41.7472 7.22208 41.7839 7.40566 41.7839C7.58924 41.7839 7.77097 41.7472 7.94018 41.676C8.1094 41.6048 8.26269 41.5005 8.39105 41.3693C8.51942 41.2381 8.62027 41.0825 8.6877 40.9117C8.75513 40.741 8.78777 40.5585 8.7837 40.375V31.0324C8.7837 30.8532 8.85489 30.6813 8.9816 30.5546C9.10832 30.4279 9.28018 30.3567 9.45938 30.3567C9.63858 30.3567 9.81044 30.4279 9.93715 30.5546C10.0639 30.6813 10.1351 30.8532 10.1351 31.0324V40.375C10.1352 41.0993 9.8478 41.7941 9.33594 42.3066C8.82407 42.8191 8.12966 43.1074 7.40532 43.1081Z" />
      <path
         d="M15.2295 31.5805C14.6095 31.58 14.0151 31.3335 13.5767 30.8952C13.1383 30.457 12.8917 29.8626 12.8909 29.2427V24.1143C12.8909 23.9351 12.9621 23.7633 13.0888 23.6366C13.2156 23.5098 13.3874 23.4387 13.5666 23.4387C13.7458 23.4387 13.9177 23.5098 14.0444 23.6366C14.1711 23.7633 14.2423 23.9351 14.2423 24.1143V29.2427C14.249 29.5 14.3559 29.7444 14.5403 29.924C14.7246 30.1035 14.9718 30.204 15.2291 30.204C15.4865 30.204 15.7336 30.1035 15.918 29.924C16.1023 29.7444 16.2092 29.5 16.2159 29.2427V20.9691C16.215 20.2563 15.9315 19.573 15.4275 19.069C14.9235 18.565 14.2402 18.2814 13.5274 18.2805H5.39094C4.67818 18.2814 3.99486 18.565 3.49086 19.069C2.98686 19.573 2.70332 20.2563 2.70243 20.9691V29.2427C2.70916 29.5 2.81608 29.7444 3.00041 29.924C3.18474 30.1035 3.43191 30.204 3.68925 30.204C3.94659 30.204 4.19376 30.1035 4.37809 29.924C4.56242 29.7444 4.66934 29.5 4.67607 29.2427V24.1143C4.67607 23.9351 4.74726 23.7633 4.87398 23.6366C5.00069 23.5098 5.17255 23.4387 5.35175 23.4387C5.53095 23.4387 5.70281 23.5098 5.82952 23.6366C5.95624 23.7633 6.02743 23.9351 6.02743 24.1143V29.2427C6.017 29.8559 5.76607 30.4405 5.32872 30.8705C4.89136 31.3005 4.30258 31.5415 3.68925 31.5415C3.07592 31.5415 2.48714 31.3005 2.04978 30.8705C1.61243 30.4405 1.3615 29.8559 1.35107 29.2427V20.9691C1.35233 19.898 1.77836 18.8712 2.53571 18.1138C3.29306 17.3565 4.31988 16.9305 5.39094 16.9292H13.5274C14.5985 16.9305 15.6253 17.3565 16.3827 18.1138C17.14 18.8712 17.566 19.898 17.5673 20.9691V29.2427C17.5666 29.8625 17.32 30.4567 16.8818 30.895C16.4435 31.3333 15.8493 31.5798 15.2295 31.5805Z" />
      <path
         d="M11.5134 43.1081C10.7891 43.1074 10.0947 42.8191 9.58281 42.3066C9.07094 41.7941 8.78351 41.0993 8.78369 40.375V31.0324C8.78369 30.8532 8.85488 30.6813 8.98159 30.5546C9.10831 30.4279 9.28017 30.3567 9.45937 30.3567C9.63857 30.3567 9.81043 30.4279 9.93714 30.5546C10.0639 30.6813 10.135 30.8532 10.135 31.0324V40.375C10.131 40.5585 10.1636 40.741 10.231 40.9117C10.2985 41.0825 10.3993 41.2381 10.5277 41.3693C10.6561 41.5005 10.8093 41.6048 10.9786 41.676C11.1478 41.7472 11.3295 41.7839 11.5131 41.7839C11.6967 41.7839 11.8784 41.7472 12.0476 41.676C12.2168 41.6048 12.3701 41.5005 12.4985 41.3693C12.6268 41.2381 12.7277 41.0825 12.7951 40.9117C12.8625 40.741 12.8952 40.5585 12.8911 40.375V24.1142C12.8911 23.935 12.9623 23.7631 13.089 23.6364C13.2157 23.5097 13.3876 23.4385 13.5668 23.4385C13.746 23.4385 13.9179 23.5097 14.0446 23.6364C14.1713 23.7631 14.2425 23.935 14.2425 24.1142V40.375C14.2427 41.0992 13.9553 41.7938 13.4436 42.3063C12.9319 42.8188 12.2376 43.1072 11.5134 43.1081Z" />
      <path
         d="M9.45939 15.4056C8.61749 15.4056 7.79449 15.1559 7.09447 14.6882C6.39445 14.2205 5.84885 13.5557 5.52666 12.7778C5.20448 12 5.12018 11.1441 5.28443 10.3184C5.44868 9.49266 5.8541 8.73418 6.44941 8.13887C7.04473 7.54355 7.80321 7.13813 8.62894 6.97388C9.45467 6.80964 10.3106 6.89393 11.0884 7.21612C11.8662 7.5383 12.531 8.0839 12.9988 8.78392C13.4665 9.48394 13.7161 10.3069 13.7161 11.1488C13.7151 12.2775 13.2662 13.3596 12.4682 14.1576C11.6701 14.9557 10.588 15.4045 9.45939 15.4056ZM9.45939 8.24344C8.88476 8.24344 8.32303 8.41384 7.84524 8.73309C7.36745 9.05234 6.99505 9.5061 6.77515 10.037C6.55525 10.5679 6.49771 11.1521 6.60982 11.7157C6.72192 12.2793 6.99863 12.7969 7.40496 13.2033C7.81129 13.6096 8.32898 13.8863 8.89258 13.9984C9.45617 14.1105 10.0403 14.053 10.5712 13.8331C11.1021 13.6132 11.5559 13.2408 11.8751 12.763C12.1944 12.2852 12.3648 11.7235 12.3648 11.1488C12.3639 10.3789 12.0574 9.64074 11.5126 9.0966C10.9679 8.55246 10.2294 8.24682 9.45939 8.24682V8.24344Z" />
      <path
         d="M32.7699 10.135H17.2294C17.0502 10.135 16.8783 10.0639 16.7516 9.93714C16.6249 9.81043 16.5537 9.63857 16.5537 9.45937C16.5537 9.28017 16.6249 9.10831 16.7516 8.98159C16.8783 8.85488 17.0502 8.78369 17.2294 8.78369H32.7699C32.9491 8.78369 33.121 8.85488 33.2477 8.98159C33.3744 9.10831 33.4456 9.28017 33.4456 9.45937C33.4456 9.63857 33.3744 9.81043 33.2477 9.93714C33.121 10.0639 32.9491 10.135 32.7699 10.135Z" />
      <path
         d="M31.1862 11.9934C31.0573 11.9929 30.9312 11.9555 30.8228 11.8857C30.7144 11.8158 30.6283 11.7164 30.5746 11.5992C30.5209 11.482 30.5018 11.3518 30.5197 11.2241C30.5376 11.0964 30.5916 10.9765 30.6754 10.8785L31.8821 9.45962L30.6754 8.04071C30.5589 7.90433 30.5014 7.72728 30.5154 7.54848C30.5295 7.36969 30.614 7.20381 30.7504 7.08733C30.8868 6.97085 31.0638 6.91331 31.2426 6.92738C31.4214 6.94144 31.5873 7.02596 31.7038 7.16233L33.2875 9.02044C33.3922 9.14282 33.4497 9.29857 33.4497 9.45962C33.4497 9.62067 33.3922 9.77643 33.2875 9.89881L31.7004 11.7569C31.6371 11.8314 31.5582 11.8911 31.4694 11.932C31.3806 11.9728 31.284 11.9938 31.1862 11.9934Z" />
      <path
         d="M18.8134 11.9933C18.7155 11.9935 18.6188 11.9723 18.53 11.9312C18.4412 11.8902 18.3624 11.8302 18.2992 11.7555L16.7154 9.89735C16.6107 9.77496 16.5532 9.61921 16.5532 9.45816C16.5532 9.29711 16.6107 9.14136 16.7154 9.01897L18.2992 7.16086C18.3569 7.09334 18.4273 7.03783 18.5064 6.99752C18.5855 6.95721 18.6718 6.93288 18.7604 6.92591C18.8489 6.91895 18.9379 6.92949 19.0224 6.95693C19.1068 6.98438 19.1851 7.02819 19.2526 7.08586C19.3201 7.14354 19.3756 7.21395 19.4159 7.29307C19.4562 7.3722 19.4806 7.45849 19.4875 7.54702C19.4945 7.63555 19.484 7.72458 19.4565 7.80904C19.4291 7.89349 19.3853 7.97172 19.3276 8.03924L18.1175 9.45951L19.3276 10.8784C19.4112 10.9767 19.4649 11.0968 19.4824 11.2245C19.4999 11.3523 19.4805 11.4824 19.4264 11.5995C19.3723 11.7166 19.2859 11.8158 19.1773 11.8853C19.0686 11.9549 18.9424 11.9919 18.8134 11.9919V11.9933Z" />
   </symbol>
   <!-- list -->
   <symbol viewBox="0 0 16 16" id="list">
      <g clip-path="url(#clip0)">
         <path
            d="M15.3751 7.375H4.5083C4.16311 7.375 3.8833 7.65481 3.8833 8C3.8833 8.34519 4.16311 8.625 4.5083 8.625H15.3751C15.7203 8.625 16.0001 8.34519 16.0001 8C16.0001 7.65481 15.7203 7.375 15.3751 7.375Z" />
         <path
            d="M15.3751 2.6875H4.5083C4.16311 2.6875 3.8833 2.96731 3.8833 3.3125C3.8833 3.65769 4.16311 3.9375 4.5083 3.9375H15.3751C15.7203 3.9375 16.0001 3.65769 16.0001 3.3125C16.0001 2.96731 15.7203 2.6875 15.3751 2.6875Z" />
         <path
            d="M15.3751 12.0625H4.5083C4.16311 12.0625 3.8833 12.3423 3.8833 12.6875C3.8833 13.0327 4.16311 13.3125 4.5083 13.3125H15.3751C15.7203 13.3125 16.0001 13.0327 16.0001 12.6875C16.0001 12.3423 15.7203 12.0625 15.3751 12.0625Z" />
         <path
            d="M0.84375 4.15625C1.30974 4.15625 1.6875 3.77849 1.6875 3.3125C1.6875 2.84651 1.30974 2.46875 0.84375 2.46875C0.37776 2.46875 0 2.84651 0 3.3125C0 3.77849 0.37776 4.15625 0.84375 4.15625Z" />
         <path
            d="M0.84375 8.84375C1.30974 8.84375 1.6875 8.46599 1.6875 8C1.6875 7.53401 1.30974 7.15625 0.84375 7.15625C0.37776 7.15625 0 7.53401 0 8C0 8.46599 0.37776 8.84375 0.84375 8.84375Z" />
         <path
            d="M0.84375 13.5312C1.30974 13.5312 1.6875 13.1535 1.6875 12.6875C1.6875 12.2215 1.30974 11.8438 0.84375 11.8438C0.37776 11.8438 0 12.2215 0 12.6875C0 13.1535 0.37776 13.5312 0.84375 13.5312Z" />
      </g>
      <defs>
         <clipPath id="clip0">
            <rect width="16" height="16" fill="white" />
         </clipPath>
      </defs>
   </symbol>
   <!-- mail -->
   <symbol viewBox="0 0 16 14" id="mail">
      <path
         d="M14.5938 0.90625H1.40625C0.631813 0.90625 0 1.53737 0 2.3125V11.6875C0 12.46 0.629 13.0938 1.40625 13.0938H14.5938C15.3663 13.0938 16 12.4648 16 11.6875V2.3125C16 1.54 15.371 0.90625 14.5938 0.90625ZM14.3996 1.84375L8.02981 8.21353L1.60497 1.84375H14.3996ZM0.9375 11.4934V2.50216L5.45247 6.97841L0.9375 11.4934ZM1.60041 12.1562L6.11822 7.63844L7.70125 9.20788C7.8845 9.38956 8.18022 9.38897 8.36272 9.20644L9.90625 7.66291L14.3996 12.1562H1.60041ZM15.0625 11.4933L10.5692 7L15.0625 2.50662V11.4933Z" />
   </symbol>
   <!-- map-point -->
   <symbol viewBox="0 0 16 16" id="map-point">
      <path
         d="M8 0C4.89838 0 2.375 2.52338 2.375 5.625C2.375 6.67294 2.66528 7.69563 3.21466 8.58288L7.67981 15.7784C7.76534 15.9163 7.91603 16 8.07809 16C8.07934 16 8.08056 16 8.08181 16C8.24528 15.9987 8.39628 15.9124 8.48025 15.7721L12.8316 8.50688C13.3507 7.63838 13.625 6.64184 13.625 5.625C13.625 2.52338 11.1016 0 8 0ZM12.0271 8.02556L8.071 14.6308L4.01147 8.08894C3.55419 7.35044 3.30625 6.49844 3.30625 5.625C3.30625 3.04031 5.41531 0.93125 8 0.93125C10.5847 0.93125 12.6906 3.04031 12.6906 5.625C12.6906 6.47253 12.459 7.30275 12.0271 8.02556Z" />
      <path
         d="M8 2.8125C6.44919 2.8125 5.1875 4.07419 5.1875 5.625C5.1875 7.16591 6.42866 8.4375 8 8.4375C9.59072 8.4375 10.8125 7.14897 10.8125 5.625C10.8125 4.07419 9.55081 2.8125 8 2.8125ZM8 7.50625C6.96072 7.50625 6.11875 6.66147 6.11875 5.625C6.11875 4.59113 6.96613 3.74375 8 3.74375C9.03387 3.74375 9.87813 4.59113 9.87813 5.625C9.87813 6.64634 9.05575 7.50625 8 7.50625Z" />
   </symbol>
   <!-- mask -->
   <symbol viewBox="0 0 38 38" id="mask">
      <path
         d="M36.2375 2.65001L35.35 1.76251C34.2953 0.709134 32.8656 0.117462 31.375 0.117462C29.8844 0.117462 28.4547 0.709134 27.4 1.76251L24.3062 4.85626L23.2687 3.81876C22.9585 3.51262 22.5521 3.32302 22.1182 3.28202C21.6843 3.24103 21.2496 3.35115 20.8875 3.59376L15.6125 7.18126C12.2959 9.43532 9.43529 12.2959 7.18123 15.6125L3.59373 20.8875C3.35112 21.2496 3.241 21.6843 3.28199 22.1182C3.32299 22.5521 3.51259 22.9586 3.81873 23.2688L4.85623 24.3063L1.76248 27.4C0.709104 28.4547 0.117432 29.8844 0.117432 31.375C0.117432 32.8656 0.709104 34.2953 1.76248 35.35L2.64998 36.2375C3.70508 37.2901 5.13461 37.8813 6.62498 37.8813C8.11536 37.8813 9.54489 37.2901 10.6 36.2375L13.6937 33.1438L14.7312 34.1813C14.9064 34.355 15.1142 34.4925 15.3427 34.5858C15.5711 34.6791 15.8157 34.7264 16.0625 34.725C16.4362 34.7245 16.8015 34.6136 17.1125 34.4063L22.3875 30.8188C25.7041 28.5647 28.5647 25.7041 30.8187 22.3875L34.4062 17.1125C34.6136 16.8015 34.7244 16.4363 34.725 16.0625C34.7264 15.8157 34.6791 15.5711 34.5858 15.3427C34.4925 15.1142 34.355 14.9065 34.1812 14.7313L33.1437 13.6938L36.2375 10.6C37.2909 9.54532 37.8825 8.11564 37.8825 6.62501C37.8825 5.13438 37.2909 3.7047 36.2375 2.65001ZM9.71873 35.35C8.89768 36.1695 7.78503 36.6298 6.62498 36.6298C5.46494 36.6298 4.35229 36.1695 3.53123 35.35L2.64998 34.4688C1.83048 33.6477 1.37023 32.5351 1.37023 31.375C1.37023 30.215 1.83048 29.1023 2.64998 28.2813L5.74373 25.1875L6.18123 25.6313L3.08748 28.725C2.38523 29.4281 1.99078 30.3813 1.99078 31.375C1.99078 32.3688 2.38523 33.3219 3.08748 34.025L3.97498 34.9125C4.679 35.6131 5.63178 36.0064 6.62498 36.0064C7.61818 36.0064 8.57097 35.6131 9.27498 34.9125L12.3687 31.8188L12.8125 32.2563L9.71873 35.35ZM7.06873 26.5125L11.4875 30.9313L8.39373 34.025C7.92416 34.4932 7.2881 34.7562 6.62498 34.7562C5.96187 34.7562 5.3258 34.4932 4.85623 34.025L3.97498 33.1438C3.50676 32.6742 3.24383 32.0381 3.24383 31.375C3.24383 30.7119 3.50676 30.0758 3.97498 29.6063L7.06873 26.5125ZM33.2937 15.6188C33.3967 15.7216 33.4606 15.8572 33.4742 16.0021C33.4879 16.147 33.4506 16.2922 33.3687 16.4125L29.7875 21.6813C27.6188 24.8687 24.8687 27.6188 21.6812 29.7875L16.4125 33.3688C16.2921 33.4506 16.147 33.488 16.0021 33.4743C15.8572 33.4606 15.7216 33.3967 15.6187 33.2938L12.8125 30.4938V30.4875L10.1625 27.8375L4.70623 22.3813C4.60326 22.2784 4.53942 22.1428 4.52573 21.9979C4.51204 21.853 4.54935 21.7079 4.63123 21.5875L8.21248 16.3188C10.3812 13.1313 13.1313 10.3812 16.3187 8.21251L21.5875 4.63126C21.6923 4.55972 21.8168 4.52258 21.9437 4.52501C22.1077 4.5257 22.2648 4.5908 22.3812 4.70626L25.1875 7.50626V7.51251L33.2937 15.6188ZM26.5125 7.06876L29.6062 3.97501C30.0758 3.50679 30.7119 3.24386 31.375 3.24386C32.0381 3.24386 32.6742 3.50679 33.1437 3.97501L34.025 4.85626C34.4932 5.32583 34.7561 5.96189 34.7561 6.62501C34.7561 7.28813 34.4932 7.92419 34.025 8.39376L30.9312 11.4875L26.5125 7.06876ZM32.2562 12.8125L31.8187 12.3688L34.9125 9.27501C35.6147 8.57189 36.0092 7.61877 36.0092 6.62501C36.0092 5.63126 35.6147 4.67814 34.9125 3.97501L34.025 3.08751C33.321 2.38694 32.3682 1.99364 31.375 1.99364C30.3818 1.99364 29.429 2.38694 28.725 3.08751L25.6312 6.18126L25.1875 5.74376L28.2812 2.65001C29.1023 1.83051 30.2149 1.37026 31.375 1.37026C32.535 1.37026 33.6477 1.83051 34.4687 2.65001L35.35 3.53126C36.1695 4.35231 36.6297 5.46497 36.6297 6.62501C36.6297 7.78506 36.1695 8.89771 35.35 9.71876L32.2562 12.8125Z" />
      <path
         d="M27.3968 13.255C27.2796 13.1378 27.1207 13.072 26.955 13.072C26.7892 13.072 26.6303 13.1378 26.5131 13.255L13.255 26.5131C13.1953 26.5708 13.1476 26.6398 13.1149 26.716C13.0821 26.7923 13.0649 26.8743 13.0642 26.9573C13.0635 27.0402 13.0793 27.1225 13.1107 27.1994C13.1421 27.2762 13.1885 27.346 13.2472 27.4046C13.3059 27.4633 13.3757 27.5097 13.4525 27.5412C13.5293 27.5726 13.6116 27.5884 13.6946 27.5877C13.7776 27.5869 13.8596 27.5697 13.9358 27.537C14.0121 27.5042 14.081 27.4566 14.1387 27.3969L27.3968 14.1388C27.514 14.0216 27.5798 13.8626 27.5798 13.6969C27.5798 13.5312 27.514 13.3722 27.3968 13.255Z" />
      <path
         d="M24.745 10.6032C24.6278 10.486 24.4688 10.4202 24.3031 10.4202C24.1374 10.4202 23.9784 10.486 23.8612 10.6032L10.6031 23.8613C10.5434 23.9189 10.4958 23.9879 10.463 24.0642C10.4303 24.1404 10.413 24.2224 10.4123 24.3054C10.4116 24.3884 10.4274 24.4707 10.4588 24.5475C10.4903 24.6243 10.5367 24.6941 10.5954 24.7528C10.654 24.8115 10.7238 24.8579 10.8006 24.8893C10.8774 24.9207 10.9597 24.9365 11.0427 24.9358C11.1257 24.9351 11.2077 24.9178 11.284 24.8851C11.3602 24.8523 11.4292 24.8047 11.4868 24.745L24.745 11.4869C24.8621 11.3697 24.928 11.2108 24.928 11.045C24.928 10.8793 24.8621 10.7204 24.745 10.6032Z" />
      <path
         d="M22.0931 7.95124C21.9759 7.83407 21.817 7.76825 21.6512 7.76825C21.4855 7.76825 21.3266 7.83407 21.2094 7.95124L7.95124 21.21C7.89155 21.2676 7.84393 21.3366 7.81118 21.4128C7.77842 21.4891 7.76118 21.5711 7.76046 21.6541C7.75974 21.7371 7.77555 21.8194 7.80698 21.8962C7.8384 21.973 7.88481 22.0428 7.9435 22.1015C8.00218 22.1602 8.07196 22.2066 8.14877 22.238C8.22558 22.2694 8.30788 22.2852 8.39087 22.2845C8.47385 22.2838 8.55587 22.2665 8.63212 22.2338C8.70837 22.201 8.77734 22.1534 8.83499 22.0937L22.0931 8.83499C22.2103 8.71778 22.2761 8.55884 22.2761 8.39312C22.2761 8.22739 22.2103 8.06844 22.0931 7.95124Z" />
      <path
         d="M15.9069 29.165C15.8472 29.2227 15.7996 29.2916 15.7668 29.3679C15.7341 29.4441 15.7168 29.5262 15.7161 29.6091C15.7154 29.6921 15.7312 29.7744 15.7626 29.8512C15.794 29.9281 15.8404 29.9978 15.8991 30.0565C15.9578 30.1152 16.0276 30.1616 16.1044 30.193C16.1812 30.2245 16.2635 30.2403 16.3465 30.2396C16.4295 30.2388 16.5115 30.2216 16.5877 30.1888C16.664 30.1561 16.733 30.1085 16.7906 30.0488L30.0487 16.79C30.1084 16.7324 30.156 16.6634 30.1888 16.5872C30.2216 16.5109 30.2388 16.4289 30.2395 16.3459C30.2402 16.2629 30.2244 16.1806 30.193 16.1038C30.1616 16.027 30.1152 15.9572 30.0565 15.8985C29.9978 15.8399 29.928 15.7935 29.8512 15.762C29.7744 15.7306 29.6921 15.7148 29.6091 15.7155C29.5261 15.7162 29.4441 15.7335 29.3679 15.7662C29.2916 15.799 29.2226 15.8466 29.165 15.9063L15.9069 29.165Z" />
   </symbol>
   <!-- money -->
   <symbol viewBox="0 0 40 34" id="money">
      <path
         d="M36.6474 1.79453C34.7249 1.02023 32.2254 0.59375 29.6094 0.59375C26.9934 0.59375 24.4938 1.02023 22.5713 1.79453C21.4352 2.25211 20.5678 2.81133 20 3.43883C19.4322 2.81133 18.5648 2.25219 17.4287 1.79461C15.5062 1.02023 13.0066 0.59375 10.3906 0.59375C7.77461 0.59375 5.27508 1.02023 3.35258 1.79453C1.19062 2.66531 0 3.90359 0 5.28125V24.0312C0 25.4089 1.19062 26.6472 3.35258 27.518C5.14062 28.2381 7.42797 28.6569 9.84375 28.712V28.7188C9.84375 31.3911 14.21 33.4062 20 33.4062C25.79 33.4062 30.1562 31.3911 30.1562 28.7188V28.712C32.572 28.6569 34.8594 28.2381 36.6474 27.518C38.8094 26.6472 40 25.4089 40 24.0312V5.28125C40 3.90359 38.8094 2.66531 36.6474 1.79453ZM38.4375 19.3438C38.4375 20.0107 37.5279 20.7913 36.0637 21.3811C34.4789 22.0194 32.3512 22.4055 30.1562 22.461V19.3438C30.1562 19.3415 30.1561 19.3392 30.1561 19.337C32.572 19.282 34.8593 18.8632 36.6475 18.143C37.3493 17.8603 37.948 17.5387 38.4376 17.1864L38.4375 19.3438ZM19.2188 9.96875C19.2188 10.6357 18.3091 11.4163 16.8449 12.0061C15.1288 12.6973 12.7762 13.0938 10.3906 13.0938C8.005 13.0938 5.6525 12.6973 3.93633 12.0061C2.47211 11.4163 1.5625 10.6357 1.5625 9.96875V7.81141C2.05211 8.16375 2.65078 8.48531 3.35258 8.76797C5.27508 9.54227 7.77461 9.96875 10.3906 9.96875C13.0066 9.96875 15.5062 9.54227 17.4287 8.76797C18.1305 8.48531 18.7291 8.16375 19.2188 7.81141V9.96875ZM3.35258 13.4555C5.27508 14.2298 7.77461 14.6562 10.3906 14.6562C13.0066 14.6562 15.5062 14.2298 17.4287 13.4555C18.1305 13.1728 18.7291 12.8512 19.2188 12.4989V14.6701C17.1977 14.7385 15.2594 15.0702 13.6916 15.6223C12.1192 16.1762 10.9877 16.9147 10.3724 17.781C7.99305 17.779 5.64812 17.383 3.93633 16.6936C2.47211 16.1038 1.5625 15.3232 1.5625 14.6562V12.4989C2.05211 12.8512 2.65078 13.1728 3.35258 13.4555ZM1.5625 17.1864C2.05211 17.5387 2.65078 17.8603 3.35258 18.143C5.1407 18.8631 7.42812 19.2819 9.84398 19.337C9.84398 19.3393 9.84383 19.3416 9.84383 19.3438V22.461C7.64875 22.4055 5.52117 22.0194 3.93641 21.3811C2.47211 20.7913 1.5625 20.0107 1.5625 19.3438V17.1864ZM11.4889 18.9599C12.0679 17.6125 15.4097 16.2188 20 16.2188C24.5903 16.2188 27.9321 17.6125 28.5105 18.9584C28.5666 19.0897 28.5938 19.2157 28.5938 19.3438C28.5938 20.0306 27.747 20.7936 26.3285 21.3846C24.6507 22.0837 22.4032 22.4688 20 22.4688C17.5968 22.4688 15.3493 22.0837 13.6715 21.3846C12.253 20.7936 11.4062 20.0306 11.4062 19.3438C11.4062 19.2157 11.4335 19.0897 11.4889 18.9599ZM38.4375 14.6562C38.4375 15.3232 37.5279 16.1038 36.0637 16.6936C34.352 17.383 32.0071 17.779 29.6278 17.781C29.013 16.9152 27.8813 16.1763 26.3084 15.6223C24.7406 15.0702 22.8023 14.7385 20.7812 14.6701V12.4989C21.2709 12.8512 21.8695 13.1728 22.5713 13.4555C24.4938 14.2298 26.9934 14.6562 29.6094 14.6562C32.2254 14.6562 34.7249 14.2298 36.6474 13.4555C37.3492 13.1728 37.9479 12.8512 38.4375 12.4989V14.6562ZM38.4375 9.96875C38.4375 10.6357 37.5279 11.4163 36.0637 12.0061C34.3475 12.6973 31.995 13.0938 29.6094 13.0938C27.2237 13.0938 24.8713 12.6973 23.1551 12.0061C21.6909 11.4163 20.7812 10.6357 20.7812 9.96875V7.81141C21.2709 8.16375 21.8695 8.48531 22.5713 8.76797C24.4938 9.54227 26.9934 9.96875 29.6094 9.96875C32.2254 9.96875 34.7249 9.54227 36.6474 8.76797C37.3492 8.48531 37.9479 8.16375 38.4375 7.81141V9.96875ZM23.1551 3.24391C24.8713 2.55266 27.2237 2.15625 29.6094 2.15625C31.995 2.15625 34.3475 2.55266 36.0637 3.24391C37.5279 3.83367 38.4375 4.6143 38.4375 5.28125C38.4375 5.9482 37.5279 6.72883 36.0637 7.31859C34.3475 8.00984 31.995 8.40625 29.6094 8.40625C27.2237 8.40625 24.8713 8.00984 23.1551 7.31859C21.6909 6.72883 20.7812 5.9482 20.7812 5.28125C20.7812 4.6143 21.6909 3.83367 23.1551 3.24391ZM3.93633 3.24391C5.6525 2.55266 8.005 2.15625 10.3906 2.15625C12.7762 2.15625 15.1288 2.55266 16.8449 3.24391C18.3091 3.83367 19.2188 4.6143 19.2188 5.28125C19.2188 5.9482 18.3091 6.72883 16.8449 7.31859C15.1288 8.00984 12.7762 8.40625 10.3906 8.40625C8.005 8.40625 5.6525 8.00984 3.93633 7.31859C2.47211 6.72883 1.5625 5.9482 1.5625 5.28125C1.5625 4.6143 2.47211 3.83367 3.93633 3.24391ZM3.93633 26.0686C2.47211 25.4788 1.5625 24.6982 1.5625 24.0312V21.8739C2.05211 22.2262 2.65078 22.5478 3.35258 22.8305C5.14062 23.5506 7.42797 23.9694 9.84375 24.0245V27.1486C7.64867 27.093 5.52109 26.707 3.93633 26.0686ZM26.3285 30.7596C24.6507 31.4587 22.4032 31.8438 20 31.8438C17.5968 31.8438 15.3493 31.4587 13.6715 30.7596C12.253 30.1686 11.4062 29.4056 11.4062 28.7188V26.607C11.5832 26.735 11.7788 26.8623 11.9956 26.9877C13.2088 27.6898 14.8595 28.2091 16.7694 28.4894C16.8079 28.495 16.846 28.4977 16.8838 28.4977C17.2651 28.4977 17.5988 28.2183 17.6558 27.8298C17.7184 27.403 17.4231 27.0061 16.9963 26.9434C13.3655 26.4104 11.4062 25.0452 11.4062 24.0312V21.9125C13.1745 23.2064 16.2959 24.0312 20 24.0312C23.7041 24.0312 26.8255 23.2064 28.5938 21.9125V24.0312C28.5938 25.0452 26.6345 26.4104 23.0037 26.9434C22.5768 27.0061 22.2815 27.403 22.3442 27.8298C22.4013 28.2184 22.7349 28.4977 23.1162 28.4977C23.1539 28.4977 23.1922 28.495 23.2306 28.4894C25.1404 28.2091 26.7911 27.6898 28.0044 26.9877C28.2212 26.8623 28.4168 26.735 28.5938 26.607V28.7188C28.5938 29.4056 27.747 30.1686 26.3285 30.7596ZM36.0637 26.0686C34.4789 26.7069 32.3512 27.093 30.1562 27.1485V24.0245C32.572 23.9693 34.8594 23.5505 36.6474 22.8304C37.3492 22.5477 37.9479 22.2262 38.4375 21.8738V24.0312C38.4375 24.6982 37.5279 25.4788 36.0637 26.0686Z" />
   </symbol>
   <!-- plane -->
   <symbol viewBox="0 0 40 30" id="plane">
      <path
         d="M4.76837 17.7408C4.42402 17.9024 4.27209 18.3091 4.42555 18.6567L5.99845 22.0333C6.07572 22.2014 6.2167 22.3323 6.39008 22.3969C6.46604 22.4245 6.5466 22.4387 6.6276 22.4387C6.72896 22.4396 6.829 22.4179 6.92117 22.3761L18.8051 16.8253L17.7287 28.0799C17.7079 28.3014 17.7933 28.5192 17.959 28.6672C18.48 29.0985 19.1293 29.3441 19.8049 29.3662C19.9912 29.366 20.1764 29.3426 20.357 29.2966C21.3217 29.0449 22.0698 28.1852 22.5801 26.7169L27.2567 12.8689L36.5189 8.5484C39.2453 7.27629 40.6503 4.69683 39.7068 2.68348C39.1713 1.63116 38.1457 0.915311 36.9734 0.774988C35.6709 0.578403 34.3397 0.783306 33.1566 1.36255L22.468 6.37458L10.9759 1.87963C9.52865 1.33453 8.38241 1.34854 7.57856 1.92888C6.90409 2.4823 6.52034 3.31417 6.53675 4.18654C6.54376 4.40786 6.65519 4.61255 6.83732 4.73908L14.5757 10.0587L10.144 12.1559L2.71277 10.2682C2.40826 10.1933 2.09128 10.3306 1.93694 10.6038L0.0847134 13.9381C-0.0113897 14.1147 -0.0264948 14.3244 0.0433387 14.5131C0.112734 14.7021 0.260282 14.8516 0.448329 14.9238L5.94985 17.1959L4.76837 17.7408ZM7.96954 3.83715C8.0107 3.54162 8.16022 3.27258 8.3892 3.08212C8.78784 2.79534 9.51485 2.83737 10.4864 3.20077L20.7206 7.19245L16.0507 9.37348L7.96954 3.83715ZM1.6784 13.9313L2.89469 11.7712L10.0459 13.5466C10.2001 13.5856 10.3627 13.5709 10.5076 13.505L33.751 2.64867C34.675 2.19289 35.7157 2.02696 36.7359 2.17319C37.4513 2.23908 38.0886 2.65195 38.4417 3.27761C39.0283 4.53615 37.8751 6.37458 35.9246 7.2833L27.8716 11.0585L28.3611 9.611C28.4848 9.23863 28.2828 8.83627 27.9104 8.7128C27.5376 8.58933 27.1354 8.79139 27.012 9.16376L21.2587 26.2833C20.9161 27.2552 20.4896 27.8356 20.0144 27.961C19.7199 28.0177 19.4152 27.9599 19.1615 27.8006L20.5597 13.1202C20.5963 12.7342 20.3132 12.3916 19.9268 12.3551C19.5409 12.3181 19.1983 12.6016 19.1615 12.9875L18.945 15.2314L6.94897 20.8238L5.96386 18.7266L7.93474 17.8041C8.18846 17.6922 8.35199 17.4413 8.35199 17.1644C8.35199 16.8873 8.18846 16.6364 7.93474 16.5247L1.6784 13.9313Z" />
   </symbol>
   <!-- play -->
   <symbol viewBox="0 0 10 18" id="play">
      <path
         d="M1.42857 17.6429C1.71317 17.6429 1.98103 17.5257 2.18192 17.3248L9.68192 9.82478C9.88281 9.62388 10 9.35603 10 9.07143C10 8.78683 9.88281 8.51897 9.68192 8.31808L2.18192 0.81808C1.98103 0.617188 1.71317 0.5 1.42857 0.5C0.842634 0.5 0.357144 0.985491 0.357144 1.57143L0.357144 16.5714C0.357144 17.1574 0.842634 17.6429 1.42857 17.6429Z" />
   </symbol>
   <!-- sedan -->
   <symbol viewBox="0 0 44 44" id="sedan">
      <path
         d="M8.25006 23.8333C5.72375 23.8333 3.66675 25.8903 3.66675 28.4166C3.66675 30.9429 5.72375 33 8.25006 33C10.7764 33 12.8334 30.943 12.8334 28.4167C12.8334 25.8904 10.7764 23.8333 8.25006 23.8333ZM8.25006 31.1667C6.73386 31.1667 5.50005 29.9329 5.50005 28.4167C5.50005 26.9005 6.73386 25.6667 8.25006 25.6667C9.76625 25.6667 11.0001 26.9005 11.0001 28.4167C11.0001 29.9328 9.76625 31.1667 8.25006 31.1667Z" />
      <path
         d="M35.7501 23.8333C33.2237 23.8333 31.1667 25.8903 31.1667 28.4166C31.1667 30.9429 33.2237 33 35.7501 33C38.2764 33 40.3334 30.943 40.3334 28.4167C40.3334 25.8904 38.2764 23.8333 35.7501 23.8333ZM35.7501 31.1667C34.2339 31.1667 33.0001 29.9329 33.0001 28.4167C33.0001 26.9005 34.2339 25.6667 35.7501 25.6667C37.2662 25.6667 38.5001 26.9005 38.5001 28.4167C38.5001 29.9328 37.2662 31.1667 35.7501 31.1667Z" />
      <path
         d="M38.5 18.3333H36.949C36.3825 18.3333 35.827 18.139 35.3833 17.7833L28.16 12.0046C27.3497 11.3575 26.3322 11 25.2963 11H12.045C10.5087 11 9.0842 11.7627 8.2317 13.0405L6.6715 15.3835C6.204 16.082 5.423 16.5 4.5833 16.5C2.057 16.5 0 18.557 0 21.0833V24.75C0 27.2763 2.057 29.3333 4.5833 29.3333C5.0893 29.3333 5.5 28.9226 5.5 28.4166C5.5 27.9106 5.0893 27.5 4.5833 27.5C3.06711 27.5 1.8333 26.2662 1.8333 24.75V21.0833C1.8333 19.5671 3.06711 18.3333 4.5833 18.3333C6.039 18.3333 7.3883 17.611 8.1968 16.3991L9.757 14.0579C10.2685 13.2916 11.1247 12.8332 12.045 12.8332H25.2963C25.9196 12.8332 26.5283 13.0477 27.016 13.4364L34.2393 19.2132C35.0038 19.8274 35.9681 20.1665 36.9508 20.1665H38.5C41.1895 20.1665 42.1667 22.9073 42.1667 24.7498C42.1667 26.5556 40.7844 27.4998 39.4167 27.4998C38.9107 27.4998 38.5 27.9105 38.5 28.4165C38.5 28.9225 38.9107 29.3332 39.4167 29.3332C42.0292 29.3333 44 27.3625 44 24.75C44 21.6388 42.0732 18.3333 38.5 18.3333Z" />
      <path
         d="M32.0833 27.5H11.9167C11.4107 27.5 11 27.9107 11 28.4167C11 28.9227 11.4107 29.3334 11.9167 29.3334H32.0834C32.5894 29.3334 33.0001 28.9227 33.0001 28.4167C33.0001 27.9107 32.5893 27.5 32.0833 27.5Z" />
      <path
         d="M30.25 18.3333H22V15.5833C22 15.0773 21.5893 14.6666 21.0833 14.6666C20.5773 14.6666 20.1666 15.0773 20.1666 15.5833V19.25C20.1666 19.756 20.5773 20.1667 21.0833 20.1667H30.25C30.756 20.1667 31.1667 19.756 31.1667 19.25C31.1667 18.744 30.756 18.3333 30.25 18.3333Z" />
      <path
         d="M17.4168 18.3333H11.5666L12.7381 15.994C12.9636 15.5412 12.7803 14.9912 12.3274 14.7638C11.8727 14.5383 11.3246 14.7198 11.0972 15.1745L9.26387 18.8412C9.12087 19.1235 9.13737 19.4627 9.30417 19.7322C9.47098 20.0017 9.76618 20.1667 10.0834 20.1667H17.4167C17.9227 20.1667 18.3334 19.756 18.3334 19.25C18.3334 18.744 17.9228 18.3333 17.4168 18.3333Z" />
      <path
         d="M24.75 22H22.9167C22.4107 22 22 22.4107 22 22.9167C22 23.4227 22.4107 23.8334 22.9167 23.8334H24.75C25.256 23.8334 25.6667 23.4227 25.6667 22.9167C25.6667 22.4107 25.256 22 24.75 22Z" />
   </symbol>
   <!-- star -->
   <symbol viewBox="0 0 20 19" id="star">
      <path
         d="M10 0L12.2451 6.90983H19.5106L13.6327 11.1803L15.8779 18.0902L10 13.8197L4.12215 18.0902L6.36729 11.1803L0.489435 6.90983H7.75486L10 0Z" />
   </symbol>
   <!-- thermometer -->
   <symbol viewBox="0 0 48 48" id="thermometer">
      <path
         d="M28.188 26.4548V6.29706C28.188 2.81924 25.3687 0 21.8909 0C18.4131 0 15.5939 2.81924 15.5939 6.29706V26.4459C10.1511 29.9184 8.55376 37.1458 12.0263 42.5886C14.1693 45.9474 17.8754 47.9836 21.8596 47.9911L21.9223 48C28.3785 47.9879 33.6025 42.7443 33.5904 36.2881C33.5829 32.3039 31.5468 28.5978 28.188 26.4548ZM16.9723 44.8884C12.233 42.1522 10.6093 36.092 13.3455 31.3527C14.2152 29.8464 15.466 28.5956 16.9723 27.7259C17.2504 27.5653 17.4211 27.2681 17.4199 26.9471V6.29706C17.4199 3.808 19.4377 1.79021 21.9267 1.79021C24.4158 1.79021 26.4336 3.808 26.4336 6.29706V26.9471C26.4324 27.2681 26.6031 27.5653 26.8811 27.7259C31.6205 30.4621 33.2442 36.5223 30.508 41.2615C27.7718 46.0009 21.7116 47.6247 16.9723 44.8884Z" />
      <path
         d="M22.8169 29.8742V16.2955C22.8169 15.8012 22.4161 15.4004 21.9218 15.4004C21.4275 15.4004 21.0267 15.8012 21.0267 16.2955V29.8742C17.6453 30.3592 15.2973 33.4934 15.7822 36.8747C16.2199 39.9268 18.8385 42.1904 21.9218 42.1819C25.3378 42.1913 28.1146 39.4298 28.1241 36.0139C28.1326 32.9306 25.869 30.3119 22.8169 29.8742ZM21.9218 40.3828C19.4945 40.3828 17.5269 38.4151 17.5269 35.9878C17.5318 33.5626 19.4965 31.5978 21.9218 31.5928C24.3491 31.5928 26.3168 33.5605 26.3168 35.9878C26.3168 38.4151 24.349 40.3828 21.9218 40.3828Z" />
      <path
         d="M36.9148 6.15381H31.3204C30.8261 6.15381 30.4253 6.55459 30.4253 7.04891C30.4253 7.54324 30.8261 7.94402 31.3204 7.94402H36.9148C37.4091 7.94402 37.8099 7.54324 37.8099 7.04891C37.8099 6.55459 37.4091 6.15381 36.9148 6.15381Z" />
      <path
         d="M35.7246 10.6294H32.4395C31.9452 10.6294 31.5444 11.0302 31.5444 11.5245C31.5444 12.0188 31.9452 12.4196 32.4395 12.4196H35.7246C36.2189 12.4196 36.6197 12.0188 36.6197 11.5245C36.6197 11.0302 36.2189 10.6294 35.7246 10.6294Z" />
      <path
         d="M36.9148 15.105H31.3204C30.8261 15.105 30.4253 15.5058 30.4253 16.0001C30.4253 16.4944 30.8261 16.8952 31.3204 16.8952H36.9148C37.4091 16.8952 37.8099 16.4944 37.8099 16.0001C37.8099 15.5058 37.4091 15.105 36.9148 15.105Z" />
      <path
         d="M35.7246 19.5806H32.4395C31.9452 19.5806 31.5444 19.9813 31.5444 20.4757C31.5444 20.97 31.9452 21.3708 32.4395 21.3708H35.7246C36.2189 21.3708 36.6197 20.97 36.6197 20.4757C36.6197 19.9813 36.2189 19.5806 35.7246 19.5806Z" />
      <path
         d="M36.9148 24.0562H31.3204C30.8261 24.0562 30.4253 24.4569 30.4253 24.9513C30.4253 25.4456 30.8261 25.8463 31.3204 25.8463H36.9148C37.4091 25.8463 37.8099 25.4456 37.8099 24.9513C37.8099 24.4569 37.4091 24.0562 36.9148 24.0562Z" />
   </symbol>
   <!-- truck -->
   <symbol viewBox="0 0 40 30" id="truck">
      <path
         d="M38.6422 13.4774L35.9185 12.2986L33.6055 7.79765C32.9804 6.56525 31.7122 5.79723 30.328 5.80616H26.345V4.68093C26.345 2.64479 24.7197 0.983734 22.6836 0.983734H3.64391C1.60778 0.983734 0.000298655 2.65372 0.000298655 4.68093V21.9167C-0.0175622 23.158 0.973715 24.1761 2.21504 24.1939C2.22397 24.1939 2.2329 24.1939 2.25077 24.1939H2.72408C2.72408 24.2832 2.71515 24.3189 2.71515 24.3725C2.70622 26.9266 4.76915 29.0074 7.32325 29.0163C9.87735 29.0253 11.9581 26.9623 11.9671 24.4082C11.9671 24.3904 11.9671 24.3815 11.9671 24.3636C11.9671 24.3011 11.9671 24.2743 11.9581 24.185H27.3453C27.3453 24.2743 27.3453 24.31 27.3453 24.3636C27.3363 26.9177 29.3993 28.9985 31.9534 29.0074C34.5075 29.0163 36.5882 26.9534 36.5972 24.3993C36.5972 24.3815 36.5972 24.3725 36.5972 24.3547C36.5972 24.2921 36.5972 24.2654 36.5972 24.1761H37.7492C38.9905 24.1761 39.9997 23.1669 39.9997 21.9256C39.9997 21.9167 39.9997 21.9077 39.9997 21.8899V15.5493C40.0175 14.6741 39.4817 13.8435 38.6422 13.4774ZM7.35004 27.2392C5.77828 27.2392 4.51016 25.9711 4.51016 24.3993C4.51016 22.8276 5.77828 21.5594 7.35004 21.5594C8.92179 21.5594 10.1899 22.8276 10.1899 24.3993C10.1899 25.9621 8.91286 27.2392 7.35004 27.2392ZM24.559 22.4257H11.5384C10.7883 20.7914 9.14505 19.7466 7.35004 19.7555C5.54609 19.7466 3.91182 20.7825 3.16167 22.4257H2.25077C1.97392 22.4257 1.78638 22.2114 1.78638 21.9345V17.3353H24.559V22.4257ZM24.559 4.68986V15.5493H1.78638V4.68986C1.78638 3.645 2.59905 2.77875 3.64391 2.77875H22.6836C23.7284 2.78768 24.5679 3.645 24.559 4.68093V4.68986ZM26.345 7.60118H30.328C31.0335 7.59225 31.6944 7.97626 32.0248 8.61032L33.8109 12.0664H26.345V7.60118ZM31.9801 27.2392C30.4084 27.2392 29.1403 25.9711 29.1403 24.3993C29.1403 22.8276 30.4084 21.5594 31.9801 21.5594C33.5519 21.5594 34.82 22.8276 34.82 24.3993C34.82 25.9621 33.5519 27.2392 31.9801 27.2392ZM38.2225 21.9345C38.2225 22.2114 38.035 22.4257 37.7581 22.4257H36.1685C35.0879 20.1127 32.3374 19.1125 30.0244 20.1931C29.042 20.6485 28.2472 21.4433 27.7918 22.4257H26.345V13.8525H35.0969L37.9367 15.1027C38.1153 15.192 38.2314 15.3885 38.2225 15.585V21.9345Z" />
   </symbol>
   <!-- ul-point -->
   <symbol viewBox="0 0 21 21" id="ul-point">
      <path
         d="M17.1964 8.25893C17.1964 8.48661 17.1161 8.70089 16.9554 8.86161L9.68304 16.1339C9.52232 16.2946 9.29464 16.3884 9.06696 16.3884C8.85268 16.3884 8.625 16.2946 8.46429 16.1339L3.61607 11.2857C3.45536 11.125 3.375 10.9107 3.375 10.683C3.375 10.4554 3.45536 10.2277 3.61607 10.067L4.83482 8.86161C4.99554 8.70089 5.20982 8.60714 5.4375 8.60714C5.66518 8.60714 5.87946 8.70089 6.04018 8.86161L9.06696 11.8884L14.5312 6.4375C14.692 6.27678 14.9062 6.18303 15.1339 6.18303C15.3616 6.18303 15.5759 6.27678 15.7366 6.4375L16.9554 7.64286C17.1161 7.80357 17.1964 8.03125 17.1964 8.25893ZM20.5714 10.4286C20.5714 4.75 15.9643 0.142856 10.2857 0.142856C4.60714 0.142856 0 4.75 0 10.4286C0 16.1071 4.60714 20.7143 10.2857 20.7143C15.9643 20.7143 20.5714 16.1071 20.5714 10.4286Z" />
   </symbol>
   <!-- use-antiseptic -->
   <symbol viewBox="0 0 48 48" id="use-antiseptic">
      <g clip-path="url(#clip0)">
         <path
            d="M22.6738 15.0624H22.695C23.4284 15.0624 24.1244 14.7713 24.6558 14.242C25.1926 13.7073 25.5005 12.9719 25.5005 12.2245C25.5005 11.2165 24.9009 10.258 24.5436 9.77644C24.0904 9.16556 23.4005 8.4375 22.688 8.4375C21.9754 8.4375 21.2856 9.16566 20.8324 9.77644C20.475 10.258 19.8755 11.2165 19.8755 12.2245C19.8755 12.9719 20.1834 13.7072 20.7202 14.242C21.2515 14.7713 21.9474 15.0624 22.6738 15.0624ZM22.6879 10.4754C23.0793 10.8742 23.6254 11.6799 23.6254 12.2245C23.6254 12.477 23.5186 12.7282 23.3324 12.9137C23.155 13.0903 22.9287 13.1874 22.6877 13.1874C22.6866 13.1874 22.6855 13.1874 22.6843 13.1874C22.6832 13.1874 22.6822 13.1874 22.681 13.1874C22.447 13.1874 22.2206 13.0903 22.0433 12.9137C21.8571 12.7282 21.7503 12.477 21.7503 12.2245C21.7503 11.6798 22.2964 10.8742 22.6879 10.4754Z" />
         <path
            d="M47.3669 13.9085C47.1991 13.6199 46.8904 13.4423 46.5565 13.4423C46.5429 13.4423 45.1874 13.3429 45.1874 12.5048C45.1874 11.9871 44.7676 11.5673 44.2499 11.5673V10.6298C44.2499 9.07903 42.9882 7.81745 41.4375 7.81735V5.62605V5.62595H42.375C42.8927 5.62595 43.3125 5.20624 43.3125 4.68846V0.938473C43.3125 0.420694 42.8927 0.000976562 42.375 0.000976562H24.5625C23.3127 0.000976562 22.1363 0.489225 21.2498 1.37572C20.3633 2.26222 19.875 3.43868 19.875 4.68846V6.56345C19.875 7.08123 20.2947 7.50095 20.8125 7.50095H24.5625C25.0802 7.50095 25.5 7.08123 25.5 6.56345V5.62595H35.8124V5.62605V7.81735C34.2616 7.81735 33 9.07903 33 10.6298V11.5673C32.4823 11.5673 32.0625 11.9871 32.0625 12.5048C32.0625 13.343 30.7072 13.4423 30.6934 13.4423C30.3596 13.4423 30.051 13.6198 29.8831 13.9083C29.4689 14.6202 29.2499 15.4316 29.2499 16.2547V17.9323L26.4423 18.8379C26.2087 17.5679 25.0998 16.3323 23.2429 16.2572L21.1385 16.172C20.6201 16.1495 20.1848 16.5535 20.1639 17.0708C20.1429 17.5882 20.5453 18.0245 21.0626 18.0454L23.167 18.1306C24.1532 18.1705 24.6082 18.7817 24.6137 19.3326C24.6197 19.9463 24.1068 20.344 23.2414 20.3962L16.3157 20.8147C15.7989 20.8459 15.4052 21.2902 15.4364 21.807C15.4677 22.3239 15.912 22.717 16.4288 22.6863L23.3544 22.2678C24.6158 22.1916 25.4735 21.6567 25.9684 20.9609L36.0521 17.7084C37.0944 17.4319 38.8874 17.164 39.3674 18.4018C39.4084 18.5227 39.3195 18.639 39.1034 18.7474L26.5835 24.7667C24.4602 25.5341 19.7595 25.8489 15.978 26.1021C14.3036 26.2142 12.722 26.3202 11.526 26.4525C11.439 26.4622 11.3536 26.4839 11.2726 26.5172L1.87499 30.3806V22.5021H5.68638C6.20416 22.5021 6.62388 22.0824 6.62388 21.5646C6.62388 20.4751 7.07716 19.415 7.86766 18.6559C8.605 17.9477 9.55121 17.5801 10.529 17.6192L12.6328 17.7044C13.15 17.7257 13.5865 17.323 13.6074 16.8056C13.6283 16.2882 13.2259 15.8519 12.7086 15.831L10.6049 15.7458C9.11096 15.6845 7.67781 16.2385 6.56894 17.3036C5.64063 18.1952 5.02995 19.3716 4.82511 20.6271H0.937496C0.419717 20.6271 0 21.0468 0 21.5646V31.7797C0 32.0923 0.155906 32.3844 0.415592 32.5585C0.572248 32.6635 0.75431 32.7172 0.93759 32.7172C1.05815 32.7172 1.17918 32.6939 1.29393 32.6468L11.8625 28.302C13.0038 28.1804 14.511 28.0795 16.1033 27.9729C20.2338 27.6963 24.9155 27.3828 27.2736 26.5107C27.301 26.5005 27.3281 26.4891 27.3545 26.4763L29.2501 25.5651V45.1883C29.2501 46.7391 30.5118 48.0008 32.0626 48.0008H45.1875C46.7383 48.0008 48 46.7391 48 45.1883V16.2548C48 15.4317 47.7811 14.6204 47.3669 13.9085ZM24.5626 3.75096C24.0448 3.75096 23.6251 4.17068 23.6251 4.68846V5.62595H21.7501V4.68846C21.7501 3.93949 22.0433 3.23384 22.5757 2.70153C23.108 2.16912 23.8136 1.87597 24.5625 1.87597H41.4376V3.75096H24.5626ZM39.5626 5.62595C39.5626 5.62595 39.5626 5.62605 39.5626 5.62595V7.81735H37.6874V5.62605V5.62595H39.5626ZM34.8751 11.5673V10.6298C34.8751 10.1129 35.2956 9.69234 35.8125 9.69234H41.4375C41.9545 9.69234 42.375 10.1129 42.375 10.6298V11.5673H34.8751ZM35.5447 15.9033C35.5296 15.9073 35.5145 15.9118 35.4997 15.9166L31.1252 17.3276V16.2548C31.1252 15.9146 31.1877 15.5778 31.3082 15.2615C32.2922 15.0873 33.3653 14.5009 33.7704 13.4423H43.4799C43.8849 14.5009 44.958 15.0872 45.9421 15.2615C46.0626 15.5778 46.1251 15.9146 46.1251 16.2548V20.4089H46.125H39.9719C41.2229 19.7651 41.4446 18.5712 41.1164 17.7257C40.3763 15.8169 38.3455 15.1524 35.5447 15.9033ZM36.0754 22.2838H46.1249H46.125V37.2843H46.1249H31.1251V24.6637L36.0754 22.2838ZM45.1875 46.1258H32.0626C31.5456 46.1258 31.1251 45.7052 31.1251 45.1883V39.1593H46.1249H46.125V45.1883C46.125 45.7052 45.7044 46.1258 45.1875 46.1258Z" />
         <path
            d="M33.9375 32.5957H35.8125V34.4707C35.8125 34.9885 36.2323 35.4082 36.75 35.4082H40.5C41.0177 35.4082 41.4375 34.9885 41.4375 34.4707V32.5957H43.3125C43.8302 32.5957 44.25 32.176 44.25 31.6582V27.9082C44.25 27.3904 43.8302 26.9707 43.3125 26.9707H41.4375V25.0957C41.4375 24.5779 41.0177 24.1582 40.5 24.1582H36.75C36.2323 24.1582 35.8125 24.5779 35.8125 25.0957V26.9707H33.9375C33.4198 26.9707 33 27.3904 33 27.9082V31.6582C33 32.176 33.4197 32.5957 33.9375 32.5957ZM34.875 28.8458H36.75C37.2677 28.8458 37.6875 28.4261 37.6875 27.9083V26.0333H39.5625V27.9083C39.5625 28.4261 39.9823 28.8458 40.5 28.8458H42.375V30.7208H40.5C39.9823 30.7208 39.5625 31.1405 39.5625 31.6583V33.5333H37.6875V31.6583C37.6875 31.1405 37.2677 30.7208 36.75 30.7208H34.875V28.8458Z" />
         <path
            d="M16.886 17.875C17.4038 17.875 17.8235 17.4553 17.8235 16.9375C17.8235 16.4197 17.4038 16 16.886 16H16.8854C16.3676 16 15.9482 16.4197 15.9482 16.9375C15.9482 17.4553 16.3682 17.875 16.886 17.875Z" />
      </g>
      <defs>
         <clipPath id="clip0">
            <rect width="48" height="48" fill="white" />
         </clipPath>
      </defs>
   </symbol>
   <!-- user -->
   <symbol viewBox="0 0 16 16" id="user">
      <path
         d="M7.88599 7.70728C8.94482 7.70728 9.86157 7.32751 10.6108 6.57825C11.3599 5.8291 11.7397 4.91248 11.7397 3.85352C11.7397 2.79492 11.36 1.87817 10.6107 1.12878C9.86145 0.379761 8.9447 0 7.88599 0C6.82703 0 5.9104 0.379761 5.16125 1.12891C4.41211 1.87805 4.03223 2.7948 4.03223 3.85352C4.03223 4.91248 4.41211 5.82922 5.16125 6.57837C5.91064 7.32739 6.82739 7.70728 7.88599 7.70728ZM5.82434 1.79187C6.39917 1.21704 7.07349 0.937622 7.88599 0.937622C8.69836 0.937622 9.3728 1.21704 9.94775 1.79187C10.5226 2.36682 10.8021 3.04126 10.8021 3.85352C10.8021 4.66602 10.5226 5.34033 9.94775 5.91528C9.3728 6.49023 8.69836 6.76965 7.88599 6.76965C7.07373 6.76965 6.39941 6.49011 5.82434 5.91528C5.24939 5.34045 4.96985 4.66602 4.96985 3.85352C4.96985 3.04126 5.24939 2.36682 5.82434 1.79187Z" />
      <path
         d="M14.629 12.3031C14.6074 11.9913 14.5637 11.6512 14.4994 11.2921C14.4344 10.9303 14.3508 10.5883 14.2507 10.2756C14.1472 9.95251 14.0067 9.63342 13.8328 9.32764C13.6525 9.01025 13.4406 8.73389 13.2028 8.50647C12.9541 8.26855 12.6497 8.07727 12.2976 7.93774C11.9468 7.79895 11.558 7.72864 11.1421 7.72864C10.9788 7.72864 10.8208 7.79565 10.5157 7.99426C10.328 8.1167 10.1084 8.2583 9.86328 8.41492C9.65369 8.54846 9.36975 8.67358 9.01904 8.78687C8.67688 8.89758 8.32947 8.95374 7.98645 8.95374C7.64368 8.95374 7.29626 8.89758 6.95386 8.78687C6.60352 8.67371 6.31946 8.54858 6.11023 8.41504C5.86743 8.25989 5.64771 8.11829 5.45715 7.99414C5.15234 7.79553 4.99438 7.72852 4.83105 7.72852C4.41504 7.72852 4.02637 7.79895 3.67566 7.93787C3.32385 8.07715 3.01929 8.26843 2.77039 8.50659C2.53259 8.73413 2.32068 9.01038 2.1405 9.32764C1.9668 9.63342 1.82617 9.95239 1.72266 10.2758C1.62268 10.5884 1.53906 10.9303 1.47412 11.2921C1.40967 11.6508 1.36609 11.991 1.34448 12.3035C1.32324 12.609 1.3125 12.927 1.3125 13.2483C1.3125 14.0835 1.578 14.7596 2.10156 15.2583C2.61865 15.7504 3.30273 15.9999 4.13489 15.9999H11.839C12.6709 15.9999 13.355 15.7504 13.8722 15.2583C14.3959 14.76 14.6614 14.0836 14.6614 13.2482C14.6613 12.9258 14.6504 12.6078 14.629 12.3031ZM13.2257 14.579C12.884 14.9042 12.4304 15.0623 11.8389 15.0623H4.13489C3.54321 15.0623 3.0896 14.9042 2.74805 14.5791C2.41296 14.2601 2.25012 13.8247 2.25012 13.2483C2.25012 12.9485 2.26001 12.6525 2.27979 12.3683C2.29907 12.0895 2.3385 11.7832 2.39697 11.4578C2.45471 11.1364 2.5282 10.8347 2.6156 10.5616C2.69946 10.2998 2.81384 10.0405 2.95569 9.79077C3.09106 9.55273 3.24683 9.34851 3.4187 9.18396C3.57947 9.03003 3.7821 8.90405 4.02087 8.80957C4.2417 8.72217 4.48987 8.67432 4.75928 8.66711C4.79211 8.68457 4.85059 8.7179 4.94531 8.77966C5.13806 8.90527 5.36023 9.04858 5.60583 9.20544C5.88269 9.38196 6.23938 9.54138 6.66553 9.67896C7.1012 9.81982 7.54553 9.89136 7.98657 9.89136C8.42761 9.89136 8.87207 9.81982 9.3075 9.67908C9.73401 9.54126 10.0906 9.38196 10.3678 9.2052C10.6191 9.04456 10.8351 8.9054 11.0278 8.77966C11.1226 8.71802 11.181 8.68457 11.2139 8.66711C11.4834 8.67432 11.7316 8.72217 11.9525 8.80957C12.1912 8.90405 12.3938 9.03015 12.5546 9.18396C12.7264 9.34839 12.8822 9.55261 13.0176 9.79089C13.1595 10.0405 13.274 10.2999 13.3578 10.5615C13.4453 10.835 13.5189 11.1365 13.5765 11.4576C13.6349 11.7837 13.6744 12.0901 13.6937 12.3684V12.3687C13.7136 12.6517 13.7236 12.9476 13.7238 13.2483C13.7236 13.8248 13.5608 14.2601 13.2257 14.579Z" />
   </symbol>
   <!-- wash-hands -->
   <symbol viewBox="0 0 48 48" id="wash-hands">
      <path
         d="M45.3672 14.625H47.4375V16.1875H45.0938C44.9165 16.1875 44.7445 16.1272 44.6061 16.0166L44.1637 15.6631C41.9211 13.8689 39.4529 12.3765 36.8223 11.2241L29.9522 8.49951C29.9439 8.49629 29.9357 8.49287 29.9275 8.48975C29.6196 8.35512 29.2728 8.33936 28.9539 8.4455C28.6351 8.55165 28.3669 8.77217 28.2011 9.06447C28.0353 9.35678 27.9838 9.70015 28.0563 10.0283C28.1289 10.3564 28.3205 10.646 28.594 10.8411L34.5833 14.7524C34.67 14.8091 34.7446 14.8824 34.8026 14.9681C34.8607 15.0539 34.9012 15.1503 34.9216 15.2519C35.2346 16.5294 35.7959 17.7329 36.5736 18.7937C38.2115 20.9888 40.5265 21.9529 43.453 21.6605L43.6085 23.2152C43.2104 23.2551 42.8271 23.2746 42.4588 23.2738C38.7544 23.2738 36.5287 21.3669 35.2847 19.6784C34.5166 18.6198 33.9317 17.4398 33.5542 16.1875H20.3867V14.625H31.5311L27.7281 12.1414C27.7211 12.1368 27.714 12.1321 27.7071 12.1272C27.3863 11.9025 27.114 11.6156 26.9063 11.2836C26.6986 10.9515 26.5598 10.5811 26.4981 10.1943C26.4364 9.80755 26.4532 9.41233 26.5473 9.03214C26.6414 8.65196 26.811 8.29458 27.046 7.98125C27.4393 7.4564 27.9979 7.07926 28.6317 6.91064C29.2655 6.74202 29.9376 6.79173 30.5397 7.05176L37.411 9.77637C37.4195 9.77969 37.4279 9.7832 37.4362 9.78682C40.1968 10.9946 42.7867 12.5599 45.1395 14.4424L45.3672 14.625ZM16.334 9.9375L19.6224 25.7219L21.1521 25.4031L17.7489 9.07041C17.7238 6.8071 16.8077 4.64487 15.1993 3.05232C13.5909 1.45978 11.4197 0.565212 9.15625 0.5625H0.5625V2.125H9.15625C10.8852 2.1272 12.5529 2.7654 13.8416 3.91799C15.1304 5.07058 15.95 6.65701 16.1444 8.375H11.4011C11.227 7.70461 10.8355 7.11088 10.288 6.68677C9.74038 6.26266 9.06761 6.03212 8.375 6.03125H0.5625V7.59375H8.375C8.77833 7.59439 9.16579 7.7509 9.45641 8.03057C9.74702 8.31025 9.91827 8.69143 9.93437 9.09443L6.04639 28.5343L7.57861 28.8407L11.3593 9.9375H16.334ZM38.8895 26.9424C36.5367 25.0603 33.9469 23.4953 31.1865 22.2874C31.1808 22.285 31.1751 22.2824 31.1692 22.2802L27.7367 20.875H29.4688V19.3125H21.8841V20.875H22.5437C22.4942 20.9314 22.446 20.9894 22.4002 21.0503C22.1661 21.3625 21.9969 21.7185 21.9026 22.0971C21.8083 22.4758 21.7909 22.8695 21.8513 23.2551C21.9117 23.6406 22.0487 24.0101 22.2543 24.3418C22.4598 24.6735 22.7298 24.9607 23.0481 25.1863L25.5918 27.125H11.5C10.9049 27.1247 10.3221 27.2944 9.82019 27.6142C9.31828 27.9339 8.91817 28.3904 8.66696 28.9299C8.41574 29.4694 8.32387 30.0694 8.40216 30.6594C8.48046 31.2493 8.72565 31.8046 9.10889 32.2599C8.52332 32.6118 8.06923 33.1459 7.81613 33.7804C7.56303 34.415 7.52488 35.115 7.70752 35.7733C7.89015 36.4316 8.28351 37.0119 8.82736 37.4253C9.37121 37.8388 10.0356 38.0626 10.7188 38.0625H23.2188V36.5H10.7188C10.3043 36.5 9.90692 36.3354 9.6139 36.0424C9.32087 35.7493 9.15625 35.3519 9.15625 34.9375C9.15625 34.5231 9.32087 34.1257 9.6139 33.8326C9.90692 33.5396 10.3043 33.375 10.7188 33.375H23.2188V31.8125H11.5C11.0856 31.8125 10.6882 31.6479 10.3951 31.3549C10.1021 31.0618 9.9375 30.6644 9.9375 30.25C9.9375 29.8356 10.1021 29.4382 10.3951 29.1451C10.6882 28.8521 11.0856 28.6875 11.5 28.6875H27.9062C28.0697 28.6875 28.2291 28.6362 28.3618 28.5409C28.4946 28.4456 28.5942 28.311 28.6465 28.1561C28.6987 28.0013 28.7011 27.8339 28.6533 27.6776C28.6055 27.5213 28.5098 27.3839 28.3798 27.2849L23.9836 23.9348C23.9752 23.9284 23.9667 23.9222 23.9581 23.9162C23.6825 23.7227 23.4887 23.4337 23.4141 23.1054C23.3394 22.777 23.3894 22.4326 23.5542 22.139C23.7191 21.8454 23.9871 21.6235 24.3063 21.5162C24.6255 21.409 24.9731 21.4241 25.2818 21.5586C25.2876 21.561 25.2933 21.5636 25.2991 21.5658L30.5688 23.7229C33.2006 24.8755 35.6698 26.3682 37.9135 28.1629C38.1899 28.3837 38.4629 28.6875 38.8438 28.6875H47.4375V27.125H39.1179L38.8895 26.9424ZM39.2756 42.8325C37.4461 43.7473 32.774 45.875 28.9154 45.875H14.625C14.2106 45.875 13.8132 45.7104 13.5201 45.4174C13.2271 45.1243 13.0625 44.7269 13.0625 44.3125C13.0625 43.8981 13.2271 43.5007 13.5201 43.2076C13.8132 42.9146 14.2106 42.75 14.625 42.75H23.2188V41.1875H12.2812C11.867 41.187 11.4699 41.0222 11.1769 40.7293C10.884 40.4364 10.7192 40.0392 10.7188 39.625H9.15625C9.15715 40.3929 9.44034 41.1336 9.95195 41.7063C10.4635 42.2789 11.1678 42.6434 11.9308 42.7305C11.6518 43.2051 11.5032 43.745 11.5 44.2955C11.4969 44.846 11.6392 45.3876 11.9127 45.8654C12.1862 46.3432 12.5811 46.7402 13.0574 47.0163C13.5337 47.2924 14.0745 47.4377 14.625 47.4375H28.9154C30.6325 47.4375 34.3188 47.0289 39.8086 44.3125H47.4375V42.75H39.625C39.5037 42.75 39.3841 42.7782 39.2756 42.8325ZM13.1589 23.5552L13.7448 13.0083L12.1849 12.9218L11.5989 23.4687L13.1589 23.5552ZM14.7251 17.1294L15.4087 25.6255L16.9663 25.5001L16.2827 17.004L14.7251 17.1294ZM6.03125 31.8125C6.03125 32.2761 5.89379 32.7292 5.63626 33.1146C5.37872 33.5 5.01268 33.8004 4.58441 33.9778C4.15615 34.1552 3.6849 34.2016 3.23026 34.1112C2.77561 34.0208 2.358 33.7976 2.03022 33.4698C1.70244 33.142 1.47922 32.7244 1.38878 32.2697C1.29835 31.8151 1.34476 31.3439 1.52216 30.9156C1.69955 30.4873 1.99995 30.1213 2.38538 29.8637C2.77081 29.6062 3.22395 29.4688 3.6875 29.4688C4.30888 29.4695 4.9046 29.7166 5.34398 30.156C5.78336 30.5954 6.03053 31.1911 6.03125 31.8125ZM4.46875 31.8125C4.46875 31.658 4.42293 31.5069 4.33709 31.3785C4.25124 31.25 4.12923 31.1499 3.98647 31.0907C3.84372 31.0316 3.68663 31.0161 3.53509 31.0463C3.38354 31.0764 3.24433 31.1508 3.13507 31.2601C3.02581 31.3693 2.95141 31.5085 2.92126 31.6601C2.89112 31.8116 2.90659 31.9687 2.96572 32.1115C3.02485 32.2542 3.12498 32.3762 3.25346 32.4621C3.38194 32.5479 3.53298 32.5938 3.6875 32.5938C3.89463 32.5935 4.09321 32.5111 4.23967 32.3647C4.38613 32.2182 4.46852 32.0196 4.46875 31.8125ZM21.6562 13.0625C21.1927 13.0625 20.7396 12.925 20.3541 12.6675C19.9687 12.41 19.6683 12.0439 19.4909 11.6157C19.3135 11.1874 19.2671 10.7162 19.3575 10.2615C19.448 9.80686 19.6712 9.38925 19.999 9.06147C20.3267 8.73369 20.7444 8.51047 21.199 8.42003C21.6537 8.3296 22.1249 8.37601 22.5532 8.55341C22.9814 8.7308 23.3475 9.0312 23.605 9.41663C23.8625 9.80206 24 10.2552 24 10.7188C23.9993 11.3401 23.7521 11.9359 23.3127 12.3752C22.8734 12.8146 22.2776 13.0618 21.6562 13.0625ZM21.6562 11.5C21.8108 11.5 21.9618 11.4542 22.0903 11.3683C22.2188 11.2825 22.3189 11.1605 22.378 11.0177C22.4372 10.875 22.4526 10.7179 22.4225 10.5663C22.3923 10.4148 22.3179 10.2756 22.2087 10.1663C22.0994 10.0571 21.9602 9.98266 21.8087 9.95251C21.6571 9.92237 21.5 9.93784 21.3573 9.99697C21.2145 10.0561 21.0925 10.1562 21.0067 10.2847C20.9208 10.4132 20.875 10.5642 20.875 10.7188C20.8752 10.9259 20.9576 11.1245 21.1041 11.2709C21.2505 11.4174 21.4491 11.4998 21.6562 11.5ZM29.4688 39.625C29.0052 39.625 28.5521 39.4875 28.1666 39.23C27.7812 38.9725 27.4808 38.6064 27.3034 38.1782C27.126 37.7499 27.0796 37.2787 27.17 36.824C27.2605 36.3694 27.4837 35.9517 27.8115 35.624C28.1392 35.2962 28.5569 35.073 29.0115 34.9825C29.4662 34.8921 29.9374 34.9385 30.3657 35.1159C30.7939 35.2933 31.16 35.5937 31.4175 35.9791C31.675 36.3646 31.8125 36.8177 31.8125 37.2812C31.8118 37.9026 31.5646 38.4983 31.1252 38.9377C30.6859 39.3771 30.0901 39.6243 29.4688 39.625ZM29.4688 38.0625C29.6233 38.0625 29.7743 38.0167 29.9028 37.9308C30.0313 37.845 30.1314 37.723 30.1905 37.5802C30.2497 37.4375 30.2651 37.2804 30.235 37.1288C30.2048 36.9773 30.1304 36.8381 30.0212 36.7288C29.9119 36.6196 29.7727 36.5452 29.6212 36.515C29.4696 36.4849 29.3125 36.5003 29.1698 36.5595C29.027 36.6186 28.905 36.7187 28.8192 36.8472C28.7333 36.9757 28.6875 37.1267 28.6875 37.2812C28.6877 37.4884 28.7701 37.687 28.9166 37.8334C29.063 37.9799 29.2616 38.0623 29.4688 38.0625Z" />
   </symbol>
</svg>