<svg width="24" height="20" fill="#fff" xmlns="http://www.w3.org/2000/svg"><path d="M7.014 15.299a.724.724 0 010-1.448c2.778.01 10.105.002 12.972.004.784 0 1.455-.513 1.631-1.247l1.628-6.777a1.26 1.26 0 00-.258-1.102 1.363 1.363 0 00-1.057-.494c-1.153 0-10.941-.043-15.955-.062L5.18 1.338C4.99.66 4.347.187 3.617.187H1.07C.7.187.4.476.4.832c0 .356.3.645.67.645h2.547c.125 0 .236.081.269.197l3.052 10.889a2.119 2.119 0 00-1.416.598 1.959 1.959 0 00-.602 1.449c.02 1.091.959 1.979 2.094 1.979h.978a2.171 2.171 0 00-.227.967c0 1.244 1.053 2.257 2.347 2.257 1.295 0 2.348-1.012 2.348-2.257a2.17 2.17 0 00-.227-.967h4.235a2.172 2.172 0 00-.227.967c0 1.244 1.053 2.257 2.347 2.257s2.348-1.013 2.348-2.257c0-.36-.089-.7-.245-1.002a.647.647 0 00.457-.61c0-.356-.3-.645-.67-.645H7.013zm4.104 2.257c0 .533-.451.967-1.006.967-.555 0-1.006-.434-1.006-.967 0-.533.451-.967 1.005-.967h.002c.554 0 1.005.434 1.005.967zm7.47.967c-.555 0-1.006-.434-1.006-.967 0-.529.443-.959.99-.967h.033c.547.008.99.439.99.967 0 .533-.452.967-1.007.967zM21.935 5.53c.004.004.004.007.003.01l-.686 2.856H18.93l.395-2.881 2.6.01c.004 0 .006 0 .01.005zm-6.914 7.035v-2.88H17.4l-.396 2.88h-1.983zm-3.326 0l-.398-2.88h2.383v2.88h-1.985zm-3.087 0h-.002a.361.361 0 01-.35-.257L7.52 9.686h2.424l.398 2.88H8.608zm2.51-4.169l-.403-2.915 2.965.012v2.903h-2.562zm3.903 0V5.498l2.952.011-.396 2.887H15.02zm-5.66-2.92l.404 2.92H7.159l-.822-2.932 3.024.012zm10.625 7.09h-1.629l.396-2.88h2.19l-.633 2.632a.329.329 0 01-.324.248z"/></svg>