<svg width="24" height="20" viewBox="0 0 24 20" fill="white" xmlns="http://www.w3.org/2000/svg">
<path d="M7.01381 15.2989C6.0142 15.2498 6.03303 13.8978 7.01377 13.8509C9.7919 13.8602 17.1195 13.8534 19.9859 13.8553C20.7699 13.8553 21.4407 13.3423 21.617 12.6078L23.2447 5.83061C23.3379 5.44256 23.2439 5.04094 22.9867 4.72877C22.7295 4.41661 22.3445 4.23506 21.9303 4.23506C20.7772 4.23506 10.9888 4.19245 5.97517 4.17324L5.18043 1.33781C4.98965 0.66022 4.34656 0.187012 3.61652 0.187012H1.07057C0.700183 0.187012 0.399902 0.475743 0.399902 0.831886C0.399902 1.18803 0.700183 1.47676 1.07057 1.47676H3.61652C3.7422 1.47676 3.85286 1.55823 3.88555 1.67418L6.93776 12.5629C6.40109 12.5817 5.90122 12.7915 5.52216 13.1614C5.12387 13.55 4.90997 14.0644 4.91985 14.61C4.93961 15.701 5.87895 16.5886 7.01381 16.5886H7.99174C7.84638 16.8819 7.76478 17.2099 7.76478 17.5559C7.76478 18.8005 8.81782 19.8131 10.1122 19.8131C11.4066 19.8131 12.4596 18.8005 12.4596 17.5559C12.4596 17.2099 12.378 16.8819 12.2326 16.5886H16.4675C16.3223 16.8819 16.2407 17.2097 16.2407 17.5556C16.2407 18.8002 17.2938 19.8127 18.5881 19.8127C19.8825 19.8127 20.9356 18.8001 20.9356 17.5556C20.9356 17.1962 20.8473 16.8564 20.6913 16.5545C20.9567 16.4686 21.1481 16.2279 21.1481 15.9437C21.1481 15.5876 20.8478 15.2989 20.4774 15.2989H7.01381ZM11.1183 17.556C11.1183 18.0894 10.6669 18.5234 10.1122 18.5234C9.55739 18.5234 9.10608 18.0894 9.10608 17.556C9.10608 17.0228 9.55695 16.589 10.1113 16.5886H10.113C10.6674 16.589 11.1183 17.0228 11.1183 17.556ZM18.5882 18.523C18.0334 18.523 17.5821 18.089 17.5821 17.5556C17.5821 17.0275 18.0246 16.5971 18.5718 16.5886H18.6045C19.1518 16.5971 19.5944 17.0275 19.5944 17.5556C19.5943 18.089 19.1429 18.523 18.5882 18.523ZM21.9353 5.52953C21.9392 5.53435 21.9387 5.53663 21.9378 5.54033L21.252 8.39604H18.9296L19.3251 5.51462L21.925 5.52468C21.929 5.52476 21.9313 5.52476 21.9353 5.52953ZM15.0209 12.5655V9.68579H17.3996L17.0044 12.5655H15.0209ZM11.6952 12.5655L11.2967 9.68579H13.6795V12.5655H11.6952ZM8.60773 12.5655H8.60562C8.44216 12.5655 8.29814 12.4595 8.25562 12.3084L7.52048 9.68579H9.94352L10.342 12.5655H8.60773ZM11.1182 8.39608L10.7149 5.4813L13.6795 5.49278V8.39608H11.1182ZM15.0209 8.39608V5.49798L17.9728 5.50941L17.5766 8.39608H15.0209ZM9.36098 5.47601L9.76503 8.39604H7.15895L6.33715 5.46427L9.36098 5.47601ZM19.9859 12.5655H18.3573L18.7525 9.68579H20.9422L20.3101 12.3176C20.275 12.4636 20.1418 12.5655 19.9859 12.5655Z"/>
</svg>
